<?xml version="1.0" encoding="utf-8"?>
<!-- Generator: Adobe Illustrator 24.0.2, SVG Export Plug-In . SVG Version: 6.00 Build 0)  -->
<svg version="1.1" id="레이어_1" xmlns="http://www.w3.org/2000/svg" xmlns:xlink="http://www.w3.org/1999/xlink" x="0px"
	 y="0px" viewBox="0 0 300 300" style="enable-background:new 0 0 300 300;" xml:space="preserve">
<style type="text/css">
	.st0{fill:#C1A689;}
</style>
<g>
	<path class="st0" d="M64.24,267.43c-11.94,0-22.38-2.91-31.33-8.72c-8.95-5.81-15.93-13.92-20.92-24.33
		c-5-10.41-7.5-22.55-7.5-36.43v-56.21c0-13.88,2.5-26.02,7.5-36.43c5-10.41,11.97-18.52,20.92-24.33
		c8.95-5.81,19.39-8.72,31.33-8.72c11.93,0,22.38,2.91,31.33,8.72c8.95,5.81,15.93,13.92,20.92,24.33c5,10.41,7.5,22.55,7.5,36.43
		v56.21c0,13.88-2.5,26.02-7.5,36.43c-5,10.41-11.97,18.52-20.92,24.33C86.62,264.52,76.17,267.43,64.24,267.43z M64.24,233.86
		c5.37,0,10.22-1.47,14.55-4.42c4.33-2.95,7.76-6.94,10.29-11.97c2.54-5.03,3.8-10.67,3.8-16.91v-61.67c0-6.25-1.27-11.88-3.8-16.91
		c-2.54-5.03-5.97-9.02-10.29-11.97c-4.33-2.95-9.18-4.42-14.55-4.42c-5.37,0-10.22,1.48-14.55,4.42
		c-4.33,2.95-7.76,6.94-10.29,11.97c-2.54,5.03-3.8,10.67-3.8,16.91v61.67c0,6.24,1.27,11.88,3.8,16.91
		c2.53,5.03,5.97,9.02,10.29,11.97C54.02,232.39,58.87,233.86,64.24,233.86z"/>
	<path class="st0" d="M239.79,263.53V227.6h-86.34v-40.74l62.62-154.29h43.03l-62.62,154.29h43.31v-57.74h38.07v57.74h17.66v40.74
		h-17.66v35.93H239.79z"/>
</g>
</svg>
