<?xml version="1.0" encoding="utf-8"?>
<!-- Generator: Adobe Illustrator 24.0.2, SVG Export Plug-In . SVG Version: 6.00 Build 0)  -->
<svg version="1.1" id="레이어_1" xmlns="http://www.w3.org/2000/svg" xmlns:xlink="http://www.w3.org/1999/xlink" x="0px"
	 y="0px" viewBox="0 0 300 300" style="enable-background:new 0 0 300 300;" xml:space="preserve">
<style type="text/css">
	.st0{fill:#C1A689;}
</style>
<g>
	<path class="st0" d="M86.92,279.87c-13.97,0-26.19-3.21-36.66-9.64s-18.64-15.4-24.49-26.91C19.92,231.81,17,218.38,17,203.03
		v-62.16c0-15.35,2.92-28.78,8.77-40.29c5.85-11.51,14.01-20.48,24.49-26.91c10.48-6.43,22.7-9.64,36.66-9.64
		c13.97,0,26.19,3.22,36.67,9.64c10.48,6.43,18.64,15.4,24.49,26.91c5.85,11.51,8.77,24.94,8.77,40.29v62.16
		c0,15.35-2.93,28.78-8.77,40.29c-5.85,11.51-14.01,20.48-24.49,26.91S100.89,279.87,86.92,279.87z M86.92,242.74
		c6.29,0,11.96-1.63,17.02-4.89c5.06-3.26,9.08-7.67,12.05-13.24c2.97-5.56,4.45-11.8,4.45-18.71V137.7
		c0-6.91-1.49-13.14-4.45-18.71c-2.97-5.56-6.98-9.98-12.05-13.24c-5.06-3.26-10.74-4.89-17.02-4.89c-6.29,0-11.96,1.63-17.02,4.89
		c-5.06,3.26-9.08,7.68-12.05,13.24c-2.97,5.56-4.45,11.8-4.45,18.71v68.21c0,6.91,1.48,13.14,4.45,18.71
		c2.97,5.57,6.98,9.98,12.05,13.24C74.96,241.11,80.64,242.74,86.92,242.74z"/>
	<path class="st0" d="M238.13,275.55V72.63l-43.58,29.44V48.87l43.58-28.73H283v255.42H238.13z"/>
</g>
</svg>
