<?xml version="1.0" encoding="utf-8"?>
<!-- Generator: Adobe Illustrator 24.0.2, SVG Export Plug-In . SVG Version: 6.00 Build 0)  -->
<svg version="1.1" id="레이어_1" xmlns="http://www.w3.org/2000/svg" xmlns:xlink="http://www.w3.org/1999/xlink" x="0px"
	 y="0px" viewBox="0 0 300 300" style="enable-background:new 0 0 300 300;" xml:space="preserve">
<style type="text/css">
	.st0{fill:#C1A689;}
</style>
<g>
	<path class="st0" d="M66.51,264.76c-11.83,0-22.18-2.78-31.05-8.35c-8.87-5.56-15.78-13.33-20.74-23.3
		c-4.95-9.97-7.43-21.6-7.43-34.89V144.4c0-13.29,2.48-24.92,7.43-34.89c4.95-9.97,11.87-17.73,20.74-23.3
		c8.87-5.56,19.22-8.35,31.05-8.35c11.83,0,22.18,2.78,31.05,8.35c8.87,5.57,15.78,13.33,20.74,23.3c4.95,9.97,7.43,21.6,7.43,34.89
		v53.83c0,13.29-2.48,24.92-7.43,34.89c-4.95,9.97-11.87,17.74-20.74,23.3C88.69,261.97,78.34,264.76,66.51,264.76z M66.51,232.61
		c5.32,0,10.13-1.41,14.42-4.24c4.29-2.82,7.69-6.64,10.2-11.46c2.51-4.82,3.77-10.22,3.77-16.2v-59.06c0-5.98-1.26-11.38-3.77-16.2
		c-2.51-4.82-5.92-8.64-10.2-11.46c-4.29-2.82-9.09-4.24-14.42-4.24s-10.13,1.41-14.42,4.24c-4.29,2.83-7.69,6.65-10.2,11.46
		c-2.51,4.82-3.77,10.22-3.77,16.2v59.06c0,5.98,1.26,11.38,3.77,16.2c2.51,4.82,5.91,8.64,10.2,11.46
		C56.38,231.2,61.19,232.61,66.51,232.61z"/>
	<path class="st0" d="M154.92,260.71v-36.25l82.56-82.32c6.2-6.14,10.57-11.93,13.12-17.36c2.55-5.43,3.83-10.49,3.83-15.2
		c0-6.76-1.23-12.77-3.69-18.05c-2.46-5.27-5.92-9.42-10.39-12.44c-4.47-3.02-9.71-4.53-15.72-4.53c-6.29,0-11.82,1.61-16.61,4.84
		c-4.78,3.23-8.5,7.48-11.14,12.75c-2.64,5.27-3.88,10.98-3.69,17.12h-38.27c0-15.15,2.96-28.26,8.88-39.32
		c5.92-11.06,14.17-19.61,24.74-25.65c10.57-6.04,22.87-9.06,36.91-9.06c12.85,0,24.35,3.15,34.51,9.45
		c10.16,6.3,18.16,15.08,23.99,26.34c5.83,11.26,8.75,24.32,8.75,39.16c0,10.96-1.37,20.04-4.1,27.26
		c-2.73,7.22-6.79,13.88-12.17,19.97c-5.38,6.09-11.98,12.98-19.82,20.66l-53.31,52.53l-3.01-9.21h92.4v39.32H154.92z"/>
</g>
</svg>
