<?xml version="1.0" encoding="utf-8"?>
<!-- Generator: Adobe Illustrator 24.0.0, SVG Export Plug-In . SVG Version: 6.00 Build 0)  -->
<svg version="1.1" id="Layer_1" xmlns="http://www.w3.org/2000/svg" xmlns:xlink="http://www.w3.org/1999/xlink" x="0px" y="0px"
	 viewBox="0 0 100 100" style="enable-background:new 0 0 100 100;" xml:space="preserve">
<style type="text/css">
	.st0{fill:#222222;}
	.st1{fill:#F8F6F4;}
</style>
<rect x="0" class="st0" width="100" height="100"/>
<g>
	<path class="st1" d="M16,68.82c-1.99,0-3.71-0.43-5.15-1.3s-2.56-2.08-3.33-3.64c-0.78-1.56-1.17-3.37-1.17-5.44
		s0.39-3.88,1.17-5.44c0.78-1.56,1.89-2.77,3.33-3.64c1.45-0.87,3.16-1.3,5.15-1.3c2.29,0,4.2,0.57,5.76,1.7
		c1.55,1.13,2.65,2.67,3.29,4.6l-3.79,1.05c-0.37-1.21-0.99-2.15-1.87-2.81c-0.88-0.67-2-1-3.39-1c-1.26,0-2.32,0.28-3.16,0.84
		c-0.84,0.56-1.48,1.36-1.9,2.38c-0.42,1.02-0.64,2.23-0.64,3.61c0,1.39,0.21,2.58,0.64,3.61s1.06,1.82,1.9,2.38
		c0.84,0.56,1.89,0.84,3.16,0.84c1.39,0,2.51-0.34,3.39-1.01c0.88-0.67,1.5-1.61,1.87-2.81l3.79,1.05c-0.64,1.94-1.73,3.47-3.29,4.6
		C20.21,68.26,18.29,68.82,16,68.82z"/>
	<path class="st1" d="M28.37,68.41V48.49h3.76v16.4h8.57v3.52H28.37z"/>
	<path class="st1" d="M41.67,68.41l6.08-19.91h5.62l6.08,19.91h-3.87l-5.42-17.56h0.72l-5.34,17.56H41.67z M45.32,64.26v-3.52h10.51
		v3.52C55.83,64.26,45.32,64.26,45.32,64.26z"/>
	<path class="st1" d="M65.16,68.41v-8.1L58.35,48.5h4.4l4.31,7.5l4.31-7.5h4.4l-6.81,11.81v8.1H65.16z"/>
	<path class="st1" d="M77.71,68.41V48.49h3.82l8.66,13.28V48.49H94V68.4h-3.82l-8.66-13.28V68.4L77.71,68.41L77.71,68.41z"/>
</g>
<g>
	<path class="st1" d="M57.8,30.15c-5.63,3.29-10.71,1.7-13.95-0.16c-0.31-0.05-0.6-0.1-0.88-0.16c-0.28,0.97-0.45,2.01-0.45,3.09
		c0,5.27,3.68,9.54,8.21,9.54s8.21-4.27,8.21-9.54c0-1-0.14-1.97-0.38-2.87C58.31,30.08,58.06,30.12,57.8,30.15z"/>
	<path class="st1" d="M57.8,30.15c-1.85,0.24-4.05,0.37-6.41,0.37c-2.86,0-5.49-0.2-7.55-0.54C47.08,31.85,52.17,33.44,57.8,30.15z"
		/>
</g>
<rect x="47.16" y="41.5" class="st1" width="7.13" height="1.91"/>
<path class="st1" d="M47.16,41.5c0,0-0.7,0.28-0.7,0.95c0,0.67,0.7,0.95,0.7,0.95"/>
<path class="st1" d="M54.3,41.5c0,0,0.7,0.28,0.7,0.95c0,0.67-0.7,0.95-0.7,0.95"/>
</svg>
