<?xml version="1.0" encoding="utf-8"?>
<!-- Generator: Adobe Illustrator 24.0.2, SVG Export Plug-In . SVG Version: 6.00 Build 0)  -->
<svg version="1.1" id="레이어_1" xmlns="http://www.w3.org/2000/svg" xmlns:xlink="http://www.w3.org/1999/xlink" x="0px"
	 y="0px" viewBox="0 0 32 32" enable-background="new 0 0 32 32" xml:space="preserve">
<rect fill="#005D66" width="32" height="32"/>
<g>
	<path fill="#FBCCCD" d="M10.3,23.34c-1.41,0-2.62-0.31-3.64-0.92c-1.02-0.61-1.81-1.47-2.36-2.57c-0.55-1.1-0.83-2.38-0.83-3.84
		s0.28-2.74,0.83-3.84c0.55-1.1,1.34-1.96,2.36-2.57s2.23-0.92,3.64-0.92c1.62,0,2.97,0.4,4.07,1.2c1.1,0.8,1.87,1.89,2.32,3.26
		l-2.68,0.74c-0.26-0.85-0.7-1.52-1.32-1.99c-0.62-0.47-1.42-0.71-2.4-0.71c-0.89,0-1.64,0.2-2.23,0.6c-0.6,0.4-1.04,0.96-1.34,1.68
		c-0.3,0.72-0.45,1.57-0.45,2.55s0.15,1.83,0.45,2.55c0.3,0.72,0.75,1.28,1.34,1.68c0.6,0.4,1.34,0.6,2.23,0.6
		c0.98,0,1.78-0.24,2.4-0.71c0.62-0.48,1.06-1.14,1.32-1.99l2.68,0.74c-0.45,1.37-1.23,2.45-2.32,3.26S11.92,23.34,10.3,23.34z"/>
	<path fill="#FBCCCD" d="M19.8,23.04V8.96h2.66v11.6h6.06v2.48H19.8z"/>
</g>
</svg>
