<?xml version="1.0" encoding="utf-8"?>
<!-- Generator: Adobe Illustrator 24.0.0, SVG Export Plug-In . SVG Version: 6.00 Build 0)  -->
<svg version="1.1" id="레이어_1" xmlns="http://www.w3.org/2000/svg" xmlns:xlink="http://www.w3.org/1999/xlink" x="0px"
	 y="0px" viewBox="0 0 209.9 97.4" style="enable-background:new 0 0 209.9 97.4;" xml:space="preserve">
<style type="text/css">
	.st0{fill:#FBCCCD;}
</style>
<g>
	<g>
		<path class="st0" d="M42.5,71.7c-3.6,0-6.8-0.8-9.4-2.4s-4.7-3.8-6.1-6.6c-1.4-2.8-2.1-6.2-2.1-9.9s0.7-7.1,2.1-9.9
			s3.5-5.1,6.1-6.6c2.6-1.6,5.8-2.4,9.4-2.4c4.2,0,7.7,1,10.5,3.1s4.8,4.9,6,8.4l-6.9,1.9c-0.7-2.2-1.8-3.9-3.4-5.1
			s-3.7-1.8-6.2-1.8c-2.3,0-4.2,0.5-5.8,1.5s-2.7,2.5-3.5,4.3c-0.8,1.9-1.2,4.1-1.2,6.6c0,2.5,0.4,4.7,1.2,6.6s1.9,3.3,3.5,4.3
			c1.5,1,3.5,1.5,5.8,1.5c2.5,0,4.6-0.6,6.2-1.8c1.6-1.2,2.7-2.9,3.4-5.1l6.9,1.9c-1.2,3.5-3.2,6.3-6,8.4
			C50.2,70.6,46.7,71.7,42.5,71.7z"/>
		<path class="st0" d="M65.1,70.9V34.5H72v30h15.7v6.4H65.1z"/>
		<path class="st0" d="M89.4,70.9l11.1-36.4h10.3l11.1,36.4h-7.1l-9.9-32.1h1.3l-9.8,32.1H89.4z M96.1,63.3v-6.4h19.2v6.4
			C115.3,63.3,96.1,63.3,96.1,63.3z"/>
		<path class="st0" d="M132.3,70.9V56.1l-12.4-21.6h8l7.9,13.7l7.9-13.7h8l-12.4,21.6v14.8H132.3z"/>
		<path class="st0" d="M155.3,70.9V34.5h7L178,58.8V34.5h7v36.4h-7l-15.8-24.3v24.3L155.3,70.9L155.3,70.9z"/>
	</g>
	<g>
		<g>
			<path class="st0" d="M118.9,1c-10.3,6-19.6,3.1-25.5-0.3c-0.6-0.1-1.1-0.2-1.6-0.3C91.3,2.2,91,4.1,91,6.1
				c0,9.6,6.7,17.4,15,17.4s15-7.8,15-17.4c0-1.8-0.3-3.6-0.7-5.3C119.8,0.9,119.4,1,118.9,1z"/>
			<path class="st0" d="M118.9,1c-3.4,0.4-7.4,0.7-11.7,0.7c-5.2,0-10-0.4-13.8-1C99.3,4.2,108.6,7.1,118.9,1z"/>
		</g>
		<g>
			<rect x="99.5" y="21.8" class="st0" width="13" height="3.5"/>
			<path class="st0" d="M99.5,21.8c0,0-1.3,0.5-1.3,1.7c0,1.2,1.3,1.7,1.3,1.7"/>
			<path class="st0" d="M112.5,21.8c0,0,1.3,0.5,1.3,1.7c0,1.2-1.3,1.7-1.3,1.7"/>
		</g>
	</g>
</g>
<g>
	<path class="st0" d="M6.1,84.1v-2.8c0-0.4,0-0.8,0.2-1.1c0.1-0.4,0.3-0.7,0.6-1s0.5-0.5,0.9-0.7c0.3-0.2,0.7-0.3,1.1-0.4v1.3
		c-0.5,0.2-0.8,0.4-1,0.7c-0.2,0.3-0.3,0.7-0.3,1.2h1.2v2.8H6.1z M9.9,84.1v-2.8c0-0.4,0-0.8,0.2-1.1c0.1-0.4,0.3-0.7,0.6-1
		c0.2-0.3,0.5-0.5,0.9-0.7c0.3-0.2,0.7-0.3,1.1-0.4v1.3c-0.5,0.2-0.8,0.4-1,0.7c-0.2,0.3-0.3,0.7-0.3,1.2h1.2v2.8H9.9z"/>
	<path class="st0" d="M14.7,79.8H23c0,2.3-0.7,4.3-2.1,5.8c-1.4,1.6-3.4,2.7-6,3.3l-1-2c2-0.5,3.5-1.2,4.5-2.1s1.7-1.9,1.9-3.1h-5.5
		V79.8z M16.5,96.1v-6.8h11.3v6.8H16.5z M19,91.2v2.9h6.4v-2.9H19z M30.2,82.6v2.1h-2.3v3.9h-2.5v-9.7h2.5v3.8H30.2z"/>
	<path class="st0" d="M42.1,86.5l-1.3,2c-0.9-0.3-1.7-0.8-2.3-1.3c-0.6-0.6-1.1-1.3-1.5-2.1c-0.4,0.9-0.9,1.7-1.6,2.4
		c-0.7,0.7-1.6,1.2-2.6,1.5l-1.3-2c0.7-0.2,1.4-0.6,1.9-1c0.5-0.4,1-0.9,1.3-1.4c0.3-0.5,0.6-1.1,0.8-1.6c0.2-0.6,0.2-1.2,0.2-1.8
		v-1.6h2.5v1.4c0,0.6,0.1,1.1,0.2,1.7s0.4,1.1,0.7,1.5c0.3,0.5,0.7,0.9,1.2,1.3C40.8,86,41.4,86.3,42.1,86.5z M40.3,89.5
		c0.9,0,1.8,0.1,2.5,0.2c0.7,0.2,1.4,0.4,1.9,0.7c0.5,0.3,0.9,0.6,1.2,1.1c0.3,0.4,0.4,0.9,0.4,1.5c0,0.5-0.1,1-0.4,1.4
		c-0.3,0.4-0.7,0.8-1.2,1.1c-0.5,0.3-1.1,0.5-1.9,0.7c-0.7,0.2-1.6,0.2-2.5,0.2s-1.8-0.1-2.5-0.2c-0.7-0.2-1.4-0.4-1.9-0.7
		c-0.5-0.3-0.9-0.6-1.2-1.1c-0.3-0.4-0.4-0.9-0.4-1.4c0-0.5,0.1-1,0.4-1.5c0.3-0.4,0.7-0.8,1.2-1.1c0.5-0.3,1.1-0.5,1.9-0.7
		C38.5,89.5,39.4,89.5,40.3,89.5z M40.3,94.4c2.3,0,3.5-0.5,3.5-1.5c0-1-1.2-1.5-3.5-1.5c-2.3,0-3.5,0.5-3.5,1.5
		C36.8,93.9,38,94.4,40.3,94.4z M43.7,89v-5h-3.2v-2h3.2v-3.2h2.5V89H43.7z"/>
	<path class="st0" d="M59.6,86.8l-1.2,2c-1-0.3-1.8-0.8-2.4-1.4c-0.7-0.6-1.2-1.3-1.5-2.1c-0.4,0.9-0.9,1.6-1.6,2.3
		c-0.7,0.7-1.5,1.2-2.6,1.5l-1.3-2c0.7-0.2,1.3-0.6,1.8-0.9s0.9-0.8,1.3-1.3c0.3-0.5,0.6-1,0.8-1.5c0.2-0.5,0.3-1.1,0.3-1.6h-3.4v-2
		H59v2h-3.4c0,0.5,0.1,1,0.3,1.5c0.2,0.5,0.4,1,0.7,1.4s0.7,0.9,1.2,1.2S58.9,86.5,59.6,86.8z M51.7,92v-2h11.9v6.3h-2.5V92H51.7z
		 M61.2,78.8h2.5v10.4h-2.5V85h-2.6v-2h2.6V78.8z"/>
	<path class="st0" d="M76.3,84.3c0,0.6-0.1,1.2-0.4,1.8c-0.2,0.5-0.6,1-1,1.4s-0.9,0.7-1.5,0.9s-1.2,0.3-1.9,0.3
		c-0.7,0-1.3-0.1-1.9-0.3c-0.6-0.2-1.1-0.5-1.5-0.9s-0.8-0.9-1-1.4c-0.2-0.5-0.4-1.1-0.4-1.8c0-0.6,0.1-1.2,0.4-1.8s0.6-1,1-1.4
		s0.9-0.7,1.5-0.9c0.6-0.2,1.2-0.3,1.9-0.3c0.7,0,1.3,0.1,1.9,0.3s1.1,0.5,1.5,0.9s0.8,0.9,1,1.4C76.2,83.1,76.3,83.7,76.3,84.3z
		 M69.2,84.3c0,0.7,0.2,1.3,0.7,1.7c0.4,0.4,1,0.6,1.6,0.6c0.7,0,1.2-0.2,1.6-0.6c0.4-0.4,0.7-1,0.7-1.7s-0.2-1.3-0.7-1.7
		c-0.4-0.4-1-0.6-1.6-0.6c-0.6,0-1.2,0.2-1.6,0.6C69.5,83.1,69.2,83.6,69.2,84.3z M71.9,94h9.6v2H69.4v-5.9h2.5V94z M81.1,78.8v12.6
		h-2.5V78.8H81.1z"/>
	<path class="st0" d="M89.2,80.4h8.4v11.8h-8.4V80.4z M95.1,82.3h-3.5v7.8h3.5V82.3z M100.3,78.8h2.5v17.5h-2.5V78.8z"/>
	<path class="st0" d="M109.2,80.4v9.4c1.2,0,2.3-0.1,3.6-0.2s2.5-0.3,3.8-0.6l0.3,2.1c-1.5,0.3-3,0.5-4.4,0.6
		c-1.4,0.1-2.8,0.2-4.2,0.2h-1.6V80.4H109.2z M117.9,78.8h2.5v17.5h-2.5V78.8z"/>
	<path class="st0" d="M132.3,84.2V87H124v-7.4h8.3v2.7h3.1v-3.5h2.5v8.8h-2.5v-3.3H132.3z M128.9,94.1h9.5v1.9h-12v-4.8h9v-1h-9.1
		v-1.9h11.6V93h-9V94.1z M129.8,85v-3.5h-3.4V85H129.8z"/>
	<path class="st0" d="M154.2,92.2h6.7v2.1h-15.8v-2.1h6.6v-3.6h-4.8V80h12.2v2h-9.7v4.6h9.8v2h-5V92.2z"/>
	<path class="st0" d="M169,82.5v1c0,0.7,0.1,1.3,0.3,2s0.4,1.4,0.8,2c0.3,0.6,0.8,1.2,1.3,1.7c0.5,0.5,1.2,1,1.9,1.3l-1.4,2
		c-1-0.4-1.8-1.1-2.5-1.9c-0.7-0.8-1.2-1.8-1.6-2.8c-0.4,1.2-0.9,2.2-1.6,3.1c-0.7,0.9-1.5,1.6-2.5,2.1l-1.4-2
		c0.7-0.3,1.3-0.8,1.9-1.3c0.5-0.6,1-1.2,1.3-1.8c0.4-0.7,0.6-1.4,0.8-2.1c0.2-0.7,0.3-1.5,0.3-2.2v-1h-3.6v-2.1h9.6v2.1H169z
		 M178.8,85.4v2.1h-2.5v8.8h-2.5V78.8h2.5v6.7H178.8z"/>
	<path class="st0" d="M181,80.6h8.4c0,1.3-0.1,2.6-0.4,3.8c-0.3,1.2-0.7,2.4-1.3,3.4c-0.6,1.1-1.4,2.1-2.5,3c-1,0.9-2.3,1.8-3.9,2.5
		l-1.3-2c1.1-0.5,2.1-1.1,2.9-1.7s1.5-1.3,2-2c0.5-0.7,1-1.5,1.3-2.3c0.3-0.8,0.5-1.7,0.6-2.7H181V80.6z M192.1,78.8h2.5v17.5h-2.5
		V78.8z"/>
	<path class="st0" d="M200.6,78.1v2.8c0,0.4,0,0.8-0.2,1.1c-0.1,0.4-0.3,0.7-0.6,1s-0.5,0.5-0.9,0.7c-0.3,0.2-0.7,0.3-1.1,0.4v-1.3
		c0.5-0.2,0.8-0.4,1-0.7c0.2-0.3,0.3-0.7,0.3-1.2H198v-2.8H200.6z M204.4,78.1v2.8c0,0.4,0,0.8-0.2,1.2s-0.3,0.7-0.6,1
		c-0.2,0.3-0.5,0.5-0.9,0.7s-0.7,0.3-1.1,0.4v-1.3c0.5-0.2,0.8-0.4,1-0.7s0.3-0.7,0.3-1.2h-1.2v-2.8H204.4z"/>
</g>
</svg>
