<?xml version="1.0" encoding="utf-8"?>
<!-- Generator: Adobe Illustrator 24.0.0, SVG Export Plug-In . SVG Version: 6.00 Build 0)  -->
<svg version="1.1" id="Layer_1" xmlns="http://www.w3.org/2000/svg" xmlns:xlink="http://www.w3.org/1999/xlink" x="0px" y="0px"
	 viewBox="0 0 100 100" style="enable-background:new 0 0 100 100;" xml:space="preserve">
<style type="text/css">
	.st0{fill:none;stroke:#1E1E1E;stroke-width:2;stroke-linecap:round;stroke-linejoin:round;}
</style>
<path class="st0" d="M6.9,21.3L21.3,2.1h57.5l14.4,19.2 M6.9,21.3v67.1c0,2.5,1,5,2.8,6.8c1.8,1.8,4.2,2.8,6.8,2.8h67.1
	c2.5,0,5-1,6.8-2.8c1.8-1.8,2.8-4.2,2.8-6.8V21.3 M6.9,21.3h86.2 M69.2,40.4c0,5.1-2,10-5.6,13.6c-3.6,3.6-8.5,5.6-13.6,5.6
	s-10-2-13.6-5.6c-3.6-3.6-5.6-8.5-5.6-13.6"/>
</svg>
