<?xml version="1.0" encoding="utf-8"?>
<!-- Generator: Adobe Illustrator 24.0.2, SVG Export Plug-In . SVG Version: 6.00 Build 0)  -->
<svg version="1.1" id="레이어_1" xmlns="http://www.w3.org/2000/svg" xmlns:xlink="http://www.w3.org/1999/xlink" x="0px"
	 y="0px" viewBox="0 0 550 150" enable-background="new 0 0 550 150" xml:space="preserve">
<g>
	<path fill="#212121" d="M69.76,133.13c-11.16,0-20.72-2.44-28.67-7.32c-7.96-4.88-14.07-11.69-18.33-20.42
		C18.5,96.65,16.37,86.52,16.37,75c0-11.52,2.13-21.65,6.39-30.38c4.26-8.73,10.37-15.54,18.33-20.42
		c7.96-4.88,17.52-7.32,28.67-7.32c12.87,0,23.59,3.22,32.16,9.65c8.58,6.43,14.6,15.1,18.06,26l-18.83,5.19
		c-2.17-7.29-5.86-12.98-11.08-17.09c-5.22-4.11-11.99-6.16-20.31-6.16c-7.49,0-13.73,1.68-18.72,5.04
		c-4.99,3.36-8.73,8.07-11.24,14.14C37.3,59.72,36.03,66.84,35.97,75c0,8.16,1.25,15.28,3.76,21.35
		c2.51,6.07,6.26,10.79,11.28,14.14c5.01,3.36,11.26,5.04,18.75,5.04c8.32,0,15.09-2.07,20.31-6.2c5.22-4.13,8.91-9.82,11.08-17.05
		l18.83,5.19c-3.46,10.9-9.48,19.57-18.06,26C93.35,129.91,82.63,133.13,69.76,133.13z"/>
	<path fill="#212121" d="M138.58,130.8V19.2h18.68v94.09h49.29v17.51H138.58z"/>
	<path fill="#212121" d="M211.97,130.8l35.19-111.6h27.36l35.18,111.6h-19.22L258.55,30.67h4.18L231.2,130.8H211.97z M231.58,106.62
		V89.18h58.59v17.44H231.58z"/>
	<path fill="#212121" d="M341.48,130.8V85.07L303.5,19.2h21.78l25.65,44.48l25.58-44.48h21.78l-37.9,65.88v45.73H341.48z"/>
	<path fill="#212121" d="M409.13,130.8V19.2h18.91l51.77,78.66V19.2h18.91v111.6h-18.91l-51.77-78.66v78.66H409.13z"/>
	<path fill="#212121" d="M509.18,130.8v-13.35h-5.13v-2.49h12.9v2.49h-5.13v13.35H509.18z"/>
	<path fill="#212121" d="M517.9,130.8v-15.84h2.39l5.48,11.22l5.48-11.22h2.39v15.84h-2.47v-10.15l-4.86,10.15h-1.06l-4.85-10.15
		v10.15H517.9z"/>
</g>
</svg>
