<?xml version="1.0" encoding="utf-8"?>
<!-- Generator: Adobe Illustrator 24.0.2, SVG Export Plug-In . SVG Version: 6.00 Build 0)  -->
<svg version="1.1" id="레이어_1" xmlns="http://www.w3.org/2000/svg" xmlns:xlink="http://www.w3.org/1999/xlink" x="0px"
	 y="0px" viewBox="0 0 180 71.67" enable-background="new 0 0 180 71.67" xml:space="preserve">
<g>
	<g>
		<path fill="#FBCCCD" d="M27.58,71.67c-3.64,0-6.77-0.79-9.41-2.37c-2.64-1.58-4.67-3.8-6.09-6.64c-1.42-2.85-2.13-6.15-2.13-9.93
			s0.71-7.08,2.13-9.93c1.42-2.85,3.45-5.06,6.09-6.64c2.64-1.58,5.77-2.38,9.41-2.38c4.18,0,7.68,1.04,10.52,3.11
			c2.84,2.07,4.84,4.88,6,8.41l-6.92,1.92c-0.67-2.21-1.81-3.92-3.41-5.14c-1.6-1.22-3.66-1.83-6.19-1.83
			c-2.31,0-4.23,0.51-5.77,1.54s-2.7,2.48-3.47,4.34c-0.77,1.87-1.16,4.07-1.16,6.59c0,2.53,0.39,4.72,1.16,6.59
			c0.77,1.87,1.93,3.32,3.47,4.34s3.46,1.54,5.77,1.54c2.53,0,4.59-0.62,6.19-1.84c1.6-1.23,2.74-2.94,3.41-5.13l6.92,1.92
			c-1.16,3.54-3.16,6.34-6,8.41C35.27,70.64,31.76,71.67,27.58,71.67z"/>
		<path fill="#FBCCCD" d="M50.17,70.92V34.54h6.87V64.5H72.7v6.42H50.17z"/>
		<path fill="#FBCCCD" d="M74.47,70.92l11.11-36.37h10.26l11.11,36.37h-7.07l-9.9-32.08h1.31l-9.75,32.08H74.47z M81.13,63.34v-6.42
			h19.2v6.42H81.13z"/>
		<path fill="#FBCCCD" d="M117.36,70.92v-14.8l-12.43-21.57h8.03l7.88,13.69l7.88-13.69h8.03l-12.43,21.57v14.8H117.36z"/>
		<path fill="#FBCCCD" d="M140.29,70.92V34.54h6.97l15.81,24.25V34.54h6.97v36.37h-6.97l-15.81-24.25v24.25H140.29z"/>
	</g>
	<g>
		<g>
			<path fill="#FBCCCD" d="M103.92,1.05c-10.28,6-19.57,3.1-25.48-0.3c-0.56-0.09-1.09-0.19-1.6-0.29
				c-0.52,1.77-0.82,3.67-0.82,5.65c0,9.62,6.72,17.42,15,17.42c8.28,0,15-7.8,15-17.42c0-1.83-0.25-3.59-0.7-5.25
				C104.86,0.92,104.4,0.98,103.92,1.05z"/>
			<path fill="#FBCCCD" d="M103.92,1.05c-3.38,0.43-7.39,0.68-11.7,0.68c-5.23,0-10.03-0.37-13.79-0.98
				C84.34,4.15,93.64,7.05,103.92,1.05z"/>
		</g>
		<g>
			<rect x="84.49" y="21.78" fill="#FBCCCD" width="13.03" height="3.48"/>
			<path fill="#FBCCCD" d="M84.49,21.78c0,0-1.27,0.52-1.27,1.74c0,1.23,1.27,1.74,1.27,1.74"/>
			<path fill="#FBCCCD" d="M97.53,21.78c0,0,1.27,0.52,1.27,1.74c0,1.23-1.27,1.74-1.27,1.74"/>
		</g>
	</g>
</g>
</svg>
