<?xml version="1.0" encoding="utf-8"?>
<!-- Generator: Adobe Illustrator 24.0.0, SVG Export Plug-In . SVG Version: 6.00 Build 0)  -->
<svg version="1.1" id="Layer_1" xmlns="http://www.w3.org/2000/svg" xmlns:xlink="http://www.w3.org/1999/xlink" x="0px" y="0px"
	 viewBox="0 0 100 100" style="enable-background:new 0 0 100 100;" xml:space="preserve">
<style type="text/css">
	.st0{stroke:#000000;stroke-width:3;stroke-miterlimit:10;}
</style>
<g>
	<g>
		<polygon points="58.61,35.73 42.06,35.73 33.79,50.06 42.06,64.39 58.61,64.39 66.88,50.06 		"/>
	</g>
	<g>
		<path d="M87.66,67.3l2.83,4.9l-2.83,4.9h-5.65l-2.83-4.9l2.83-4.9H87.66 M89.4,64.3h-9.12l-4.56,7.9l4.56,7.9h9.12l4.56-7.9
			L89.4,64.3L89.4,64.3z"/>
	</g>
	<g>
		<polygon points="87.76,17.89 78.71,19 75.15,27.4 80.64,34.68 89.69,33.57 93.25,25.17 		"/>
	</g>
	<g>
		<polygon points="21.33,17.29 12.42,15.31 6.26,22.03 9,30.72 17.9,32.7 24.06,25.98 		"/>
	</g>
	<g>
		<path d="M52.51,6.46l2.83,4.9l-2.83,4.9h-5.65l-2.83-4.9l2.83-4.9H52.51 M54.24,3.46h-9.12l-4.56,7.9l4.56,7.9h9.12l4.56-7.9
			L54.24,3.46L54.24,3.46z"/>
	</g>
	<g>
		<path d="M17.99,66.57l2.83,4.9l-2.83,4.9h-5.65l-2.83-4.9l2.83-4.9H17.99 M19.72,63.57H10.6l-4.56,7.9l4.56,7.9h9.12l4.56-7.9
			L19.72,63.57L19.72,63.57z"/>
	</g>
	<g>
		<polygon points="54.17,80.75 45.05,80.75 40.49,88.65 45.05,96.54 54.17,96.54 58.73,88.65 		"/>
	</g>
	<line class="st0" x1="64.78" y1="39.59" x2="76.27" y2="31.87"/>
	<path class="st0" d="M83.55,45.5"/>
	<path class="st0" d="M49.68,31.17"/>
	<line class="st0" x1="49.68" y1="20.75" x2="49.68" y2="31.82"/>
	<line class="st0" x1="49.68" y1="67.64" x2="49.68" y2="79.36"/>
	<line class="st0" x1="33.1" y1="40.24" x2="22.68" y2="31.12"/>
	<line class="st0" x1="35.31" y1="59.78" x2="23.08" y2="66.28"/>
	<line class="st0" x1="65.31" y1="58.91" x2="76.44" y2="67.16"/>
</g>
</svg>
