<?xml version="1.0" encoding="utf-8"?>
<!-- Generator: Adobe Illustrator 24.0.0, SVG Export Plug-In . SVG Version: 6.00 Build 0)  -->
<svg version="1.1" id="Layer_1" xmlns="http://www.w3.org/2000/svg" xmlns:xlink="http://www.w3.org/1999/xlink" x="0px" y="0px"
	 viewBox="0 0 100 100" style="enable-background:new 0 0 100 100;" xml:space="preserve">
<style type="text/css">
	.st0{fill:none;stroke:#000000;stroke-width:3;stroke-miterlimit:10;}
	.st1{fill:none;stroke:#000000;stroke-width:3;stroke-linecap:round;stroke-linejoin:round;stroke-miterlimit:10;}
	.st2{fill:none;stroke:#222222;stroke-width:3;stroke-linecap:round;stroke-linejoin:round;stroke-miterlimit:10;}
</style>
<g>
	<path class="st0" d="M78.07,97.08L57.99,93.7c0,0-0.3-9.89,8.3-8.44s7.65,1.29,7.65,1.29S79.84,86.56,78.07,97.08z"/>
	<path class="st1" d="M75.86,86.87c0,0-3.34-3.51-1.9-6.22s15.65-17.04,15.03-25.01s-7.11-45.46-9.51-37.01l-1.31,25.35"/>
	<path class="st1" d="M64.53,84.95c0,0-11.61-19.63-4.58-26.32s18.36-15.6,16.44-10.02s-9.91,12.1-9.91,12.1"/>
</g>
<g>
	<path class="st0" d="M21.93,97.08l20.09-3.38c0,0,0.3-9.89-8.3-8.44s-7.65,1.29-7.65,1.29S20.16,86.56,21.93,97.08z"/>
	<path class="st1" d="M24.14,86.87c0,0,3.34-3.51,1.9-6.22S10.39,63.61,11.02,55.64c0.63-7.97,7.11-45.46,9.51-37.01l1.31,25.35"/>
	<path class="st1" d="M35.47,84.95c0,0,11.61-19.63,4.58-26.32S21.68,43.03,23.61,48.6s9.91,12.1,9.91,12.1"/>
</g>
<g>
	<path class="st2" d="M57.8,50.08c0,0,1.64-0.7,1.64-2.39c0-1.66-1.6-2.37-1.63-2.39c6.46-3.87,10.93-12.05,10.93-21.54
		c0-2.52-0.32-4.93-0.9-7.22c-0.59,0.08-1.18,0.16-1.8,0.26c-4.35,0.59-9.51,0.93-15.06,0.93c-6.73,0-12.9-0.51-17.74-1.34
		c0,0,0,0,0,0c-0.72-0.12-1.4-0.26-2.06-0.4c-0.67,2.43-1.06,5.04-1.06,7.77c0,9.49,4.47,17.66,10.92,21.54h-0.02
		c0,0-1.64,0.71-1.64,2.39c0,1.69,1.64,2.39,1.64,2.39h16.78"/>
	<path class="st2" d="M57.79,45.32c0,0,0.01-0.01,0.01-0.01"/>
</g>
</svg>
