<?xml version="1.0" encoding="utf-8"?>
<!-- Generator: Adobe Illustrator 24.0.2, SVG Export Plug-In . SVG Version: 6.00 Build 0)  -->
<svg version="1.1" id="레이어_1" xmlns="http://www.w3.org/2000/svg" xmlns:xlink="http://www.w3.org/1999/xlink" x="0px"
	 y="0px" viewBox="0 0 4087.7 2500" style="enable-background:new 0 0 4087.7 2500;" xml:space="preserve">
<style type="text/css">
	.st0{fill:#010101;}
	.st1{fill:#8AC640;}
	.st2{fill:#F0EFEF;}
	.st3{fill:#0A1825;}
	.st4{opacity:0.3;fill:#010101;enable-background:new    ;}
	.st5{fill:none;}
	.st6{opacity:0.4;fill:#010101;enable-background:new    ;}
	.st7{fill:#8AC640;stroke:#010101;stroke-width:10.8638;stroke-linejoin:round;stroke-miterlimit:68.4979;}
	.st8{fill:#0E100F;}
</style>
<g>
	<path class="st0" d="M439.7,1119c-71.2,33.5-259.5,184.2-295.8,228.8c-37.7,44.6-48.8-25.1-9.8-140.9
		c30.7-93.5,108.8-220.4,240-329.3c76.7-62.8,245.6-153.5,348.8-206.5c20.9-11.2,291.6-125.6,533-182.8
		c20.9-5.6-25.1,34.9-32.1,57.2c-36.3,106-760.4,560.9-760.4,560.9L439.7,1119z M1459.6,2398.4c12.6,75.3,1.4,80.9-76.7,90.7
		c-78.1,9.8-135.3-19.5-156.3-39.1c-20.9-19.5-25.1-62.8-4.2-101.8c12.6-25.1,25.1-33.5,32.1-64.2c7-29.3,12.6-36.3,18.1-47.4
		c5.6-9.8,7-19.5,8.4-87.9c1.4-68.4,0-196.7,7-251.1c7-55.8,248.4,25.1,248.4,25.1s-57.2,142.3-72.6,177.2
		c-15.4,34.9-14,101.8-14,115.8c0,14-5.6,41.9-9.8,43.2c-4.2,1.4,14,37.7,5.6,58.6C1440.1,2337,1458.2,2387.2,1459.6,2398.4
		L1459.6,2398.4z M1551.7,265.1c-8.4-53,0-157.7,11.2-174.4c34.9-47.4,219-53,258.1,2.8c16.7,25.1,15.3,83.7,12.6,121.4
		c-2.8,37.7-12.6,118.6-14,145.1c-1.4,19.5-203.7,50.2-248.3-2.8C1558.6,343.2,1551.7,265.1,1551.7,265.1L1551.7,265.1z
		 M1961.9,2263c85.1,61.4,150.7,72.6,193.9,94.9c43.2,22.3,32.1,65.6-40.5,78.1c-58.6,11.2-150.7-11.2-212.1-11.2
		c-61.4,0-198.1,7-234.4-18.1c-41.9-29.3-23.7-83.7-23.7-83.7c11.2-30.7,39.1-99.1,30.7-154.9s-19.5-86.5-40.5-138.1
		c-20.9-51.6-36.3-178.6-16.7-185.6c19.5-7,13.9,0,39.1,5.6c25.1,5.6,53,14,107.4,14c54.4,0,114.4-8.4,135.3-12.6
		c20.9-4.2,37.7-8.4,30.7,34.9c-7,43.2-27.9,124.2-29.3,187c-1.4,62.8-1.4,135.3,2.8,147.9C1908.8,2233.7,1939.5,2247.7,1961.9,2263
		L1961.9,2263z"/>
	<path class="st1" d="M1663.3,404.6c-153.5,132.6-450.7,168.8-891.5,339c-113,43.2-414.4,173-486.9,308.3
		c244.2-140.9,334.9,53,354.4,252.5c18.1,187,111.6,284.6,351.6,279c247-5.6,322.3,138.1,390.7,307
		c132.5-646,344.6-771.6,481.3-881.8C2153,772.9,1795.8,357.2,1663.3,404.6L1663.3,404.6z"/>
	<path class="st1" d="M1663.3,404.6C1295,533,930.8,565.1,502.5,828.8c-101.8,62.8-316.7,205.1-358.6,477.2
		c156.3-173,517.6-390.7,959.9-528.8c223.2-69.8,386.5-115.8,584.6-192.5C1674.5,495.3,1674.5,460.4,1663.3,404.6L1663.3,404.6z"/>
	<path class="st0" d="M2133.5,1169.2c0,0-26.5,90.7-79.5,120c0,0-39.1,14-117.2-29.3c-22.3-12.6-39.1-55.8-37.7-69.8
		c1.4-33.5,22.3-48.8,22.3-48.8s22.3-37.7,48.8-36.3c26.5,1.4,71.2,5.6,85.1-7C2067.9,1084.1,2136.3,1123.1,2133.5,1169.2
		L2133.5,1169.2z M1564.2,291.6c0,0-5.6,71.2-15.3,115.8c-1.4,8.4-43.2,12.6-74,25.1c58.6,167.4,411.6,166,457.6,83.7
		c-22.3-15.3-67-39.1-87.9-47.4c-20.9-8.4-19.5-7-20.9-46c-1.4-39.1-4.2-111.6-7-131.2C1814,272.1,1597.7,272.1,1564.2,291.6
		L1564.2,291.6z"/>
	<path class="st2" d="M1578.2,291.6c0,0,0,40.5-4.2,79.5c-1.4,18.1-2.8,29.3-5.6,43.2c-1.4,8.4,47.4,41.9,61.4,115.8
		c67,149.3,221.8,75.3,286,4.2c-22.3-15.4-58.6-36.3-100.5-53c-20.9-8.4-11.2-26.5-12.6-65.6c-1.4-39.1-7-96.3-9.8-117.2
		C1790.2,277.6,1611.7,272.1,1578.2,291.6L1578.2,291.6z"/>
	<g>
		<path class="st0" d="M1564.2,291.6c0,0-1.4,25.1-5.6,54.4c18.1,18.1,41.9,43.2,60,58.6c12.6,11.2,43.2,9.8,71.2,9.8
			c25.1,0,47.4,2.8,57.2-2.8c22.3-11.2,54.4-39.1,72.6-60c-1.4-25.1-2.8-48.8-4.2-60C1814,272.1,1597.7,272.1,1564.2,291.6z"/>
		<path class="st0" d="M1691.2,397.6c-16.7,0-36.3-1.4-51.6-4.2c-7-1.4-14-5.6-19.5-8.4c-9.8-7-19.5-15.3-30.7-23.7
			c-22.3-16.7-23.7-26.5-23.7-30.7c9.8-87.9-2.8-161.8-2.8-161.8s-9.8-37.7,43.2-47.4s85.1-11.2,85.1-11.2s33.5,0,85.1,11.2
			c53,9.8,43.2,47.4,43.2,47.4s-12.6,73.9-2.8,161.8c0,4.2-1.4,13.9-23.7,30.7c-19.5,14-34.9,29.3-50.2,32.1
			C1727.5,396.2,1707.9,397.6,1691.2,397.6z"/>
		<path class="st0" d="M1691.2,73.9c-92.1,0-110.2,25.1-136.7,53c-5.6,7-1.4,48.8,8.4,138.1h12.6c0,0-8.4-25.1-7-54.4
			c1.4-29.3,7-27.9,2.8-34.9c-5.6-8.4-16.7-22.3,8.4-36.3c25.1-14,64.2,11.2,111.6,12.6c47.4-1.4,87.9-26.5,113-12.6
			c25.1,13.9,14,27.9,8.4,36.3c-5.6,8.4,1.4,5.6,2.8,34.9c1.4,29.3-7,54.4-7,54.4h12.6c8.4-89.3,14-128.4,9.8-135.3
			C1807,99.1,1783.3,75.3,1691.2,73.9z M2133.5,1173.4c0,0-26.5,85.1-78.1,114.4c-11.2-5.6-9.8-13.9-19.5-26.5
			c-2.8-4.2-12.6-7-16.7-11.2c-4.2-4.2-2.8-11.2-9.8-16.7c-5.6-5.6-9.8-1.4-15.4-5.6c-5.6-5.6-7-12.6-11.2-16.7
			c-2.8-2.8-14-4.2-16.7-7c-7-7-68.4-19.5-65.6-33.5c5.6-20.9,16.7-36.3,16.7-36.3s26.5-39.1,53-37.7c26.5,1.4,51.6,7,65.6-5.6
			C2051.2,1077.1,2137.7,1128.7,2133.5,1173.4L2133.5,1173.4z"/>
		<path class="st0" d="M1952.1,556.7c0,0,87.9-20.9,147.9,36.3c60,58.6,55.8,131.1,37.7,175.8c15.3,18.1,43.2,68.4,22.3,128.4
			c92.1,78.1,51.6,198.1-30.7,277.6c0,0-19.5-72.6-97.7-76.7c2.8-27.9-72.6-50.2-37.7-122.8c-53-12.6-51.6-48.8-60-93.5
			C1927,837.1,1952.1,556.7,1952.1,556.7L1952.1,556.7z"/>
	</g>
	<path class="st2" d="M1920,595.7c0,0,101.8-51.6,161.8,7c60,58.6,43.2,122.8,25.1,167.4c15.3,18.1,51.6,69.8,29.3,131.1
		c-4.2,14-34.9,14-57.2,50.2c55.8-32.1,90.7-23.7,103.2,16.7c19.5,62.8-23.7,138.1-61.4,180c0-1.4-1.4-2.8-1.4-4.2
		c-5.6,20.9-12.6,61.4-54.4,106c-20.9,22.3-37.7,19.5-61.4,14c-27.9-7-37.7-19.5-76.7-40.5c-22.3-12.6-9.8-27.9-9.8-40.5
		c0-2.8,2.8-7,7-12.6c2.8-7,11.2-18.1,23.7-30.7c0,0,18.1-25.1,44.7-23.7c26.5,1.4,54.4-4.2,61.4-11.2c0-48.8-55.8-50.2-36.3-133.9
		c1.4-4.2,8.4-11.2,30.7-14c-33.5-7-48.8-8.4-72.6-30.7c-16.7-15.3-29.3-34.9-33.5-60C1934,823.2,1920,595.7,1920,595.7L1920,595.7z
		"/>
	<path class="st0" d="M1625.6,507.9c-8.4-11.2-51.6-67-133.9-89.3c-23.7-7-39.1,12.6-62.8,26.5c-7-4.2-37.7-18.1-54.4-8.4
		c-16.7,9.8-27.9,19.5-44.6,26.5c-8.4-4.2-30.7-4.2-48.8,2.8c-18.1,5.6-46,18.1-72.6,54.4c-16.7,60,295.8,15.3,295.8,15.3
		L1625.6,507.9z"/>
	<path class="st1" d="M1628.4,507.9c-44.7-15.4-37.7-67-136.7-75.3c-19.5-1.4-32.1,13.9-46,23.7c7,7,14,18.1,18.1,29.3
		c-12.6-13.9-34.9-32.1-57.2-36.3c-20.9-4.2-34.9,11.2-57.2,22.3c4.2,4.2,8.4,11.2,13.9,19.5c-19.5-12.6-33.5-16.7-60-7
		c-18.1,5.6-53,20.9-79.5,58.6c-16.7,60,281.8-7,281.8-7L1628.4,507.9z"/>
	<path class="st0" d="M1890.7,530.2c0,0,0-15.4-1.4-29.3c0-2.8-11.2-9.8-11.2-12.6l-2.8-2.8c0,0,22.3-12.6,39.1-5.6
		c18.1,5.6,27.9,29.3,27.9,29.3c32.1-11.2,34.9,1.4,50.2,18.1c33.5-7,37.7,5.6,58.6,36.3c0,0-25.1-4.2-73.9,4.2
		C1929.8,574.8,1890.7,528.8,1890.7,530.2L1890.7,530.2z"/>
	<path class="st1" d="M1885.1,523.2c0,0,8.4-7,5.6-8.4c15.3-8.4,36.3-18.1,46,8.4c32.1-11.2,36.3,4.2,51.6,20.9
		c39.1-18.1,41.9,4.2,44.6,13.9c-12.6,0-30.7,1.4-55.8,4.2C1929.8,569.2,1883.7,521.8,1885.1,523.2z"/>
	<path class="st0" d="M1410.8,488.3c0,0,79.5,27.9,146.5,23.7c67-5.6,181.4-11.2,242.8,25.1c0,0,62.8-22.3,121.4-7
		c58.6,15.3,166,115.8,133.9,221.8c-2.8,7-20.9,18.1-41.9,25.1c0,0,11.2,47.4-8.4,86.5c-19.5,37.7-62.8,110.2-64.2,210.7
		c-1.4,16.7-4.2,51.6-7,68.4c-108.8-4.2-276.3-44.6-440.9-41.9c1.4-18.1,2.8-29.3,4.2-47.4h4.2c-8.4-46-11.2-69.8-19.5-104.6
		c-53-33.5-108.8-72.5-156.3-146.5C1279.6,728.3,1410.8,488.3,1410.8,488.3L1410.8,488.3z M1949.3,1241.7c0,0,86.5,309.7-15.3,439.5
		c0,0,15.3,60-19.5,124.2c-5.6,27.9-12.6,53-16.7,80.9c-18.1,115.8-48.8,164.6-57.2,350.2l-83.7-1.4c0,0-9.8-133.9-39.1-205.1
		c-16.7-40.5-82.3-94.9-79.5-149.3c2.8-41.9,11.2-76.7,82.3-132.6c5.6-80.9-75.3-157.7-62.8-459L1949.3,1241.7z"/>
	<path class="st2" d="M1924.2,1229.2c22.3,142.3,73.9,353-19.5,456.2c5.5,26.2,6,53.2,1.4,79.5c-2.8,16.7-8.4,34.9-15.3,54.4
		c-14,33.5-19.5,82.3-23.7,111.6c-18.1,115.8-18.1,121.4-26.5,307l-83.7-1.4c0,0-9.8-133.9-39.1-205.1
		c-16.7-40.5-51.6-75.3-54.4-129.8c-2.8-41.9,26.5-125.6,96.3-122.8c-4.2-168.8-82.3-135.3-103.2-486.9L1924.2,1229.2z
		 M1410.8,488.3c0,0,30.7,9.8,64.2,12.6c33.5,2.8,69.8,0,101.8-1.4c67-5.6,161.8-12.6,224.6,23.7c0,0,34.9-11.2,72.6-8.4
		c16.7,1.4,33.5,15.4,53,20.9c61.4,15.3,120,117.2,93.5,209.3c-2.8,7-22.3,0-44.6,7c4.2,19.5,7,64.2-15.4,111.6
		c-23.7,47.4-54.4,108.8-48.8,226c-146.5-7-212.1-16.7-357.2-23.7c-12.6-51.6-20.9-103.2-22.3-129.8c19.5-9.8,30.7-18.1,46-34.9
		c-41.9,7-58.6,4.2-83.7-9.8c-25.1-14-69.8-58.6-92.1-87.9c-2.8-2.8-18.1,43.2-53,44.6c-12.6-18.1,40.5-69.8,30.7-89.3
		C1345.2,687.8,1410.8,488.3,1410.8,488.3L1410.8,488.3z"/>
	<path class="st0" d="M1935.3,1113.4c0,0,2.8,50.2,2.8,62.8c0,14,11.2,55.8,12.6,75.3c-15.3,26.5-82.3,86.5-203.7,108.8
		c-120,25.1-279-163.2-279-163.2c4.2-18.1,18.1-71.2,27.9-99.1c1.4-2.8,4.2-9.8,4.2-12.6C1512.6,1067.3,1935.3,1113.4,1935.3,1113.4
		z"/>
	<path class="st2" d="M1904.7,1117.6c0,34.9,5.6,60,9.8,82.3c7,40.5,18.1,67,18.1,93.5c0,80.9-106,67-195.3,69.8
		c-120,25.1-221.8-163.2-221.8-163.2c8.4-32.1,14-68.4,26.5-99.1c1.4-16.7,4.2-37.7,5.6-47.4c170.2,0,290.2,9.8,360,16.7
		C1910.2,1085.5,1907.4,1112,1904.7,1117.6L1904.7,1117.6z"/>
	<path class="st0" d="M1770.7,1297.5c0,0-73.9-164.6-295.8-115.8c-53,149.3-124.2,320.9-78.1,506.5c-46,62.8-99.1,97.7-99.1,213.5
		c0,115.8,5.6,135.3,5.6,135.3l163.2,8.4c0,0,53-68.4,73.9-142.3c5.6-20.9,11.2-58.6,7-101.8c5.6-8.4,29.3-27.9,32.1-65.6
		c0,0,79.5-41.9,125.6-143.7C1748.4,1499.8,1737.2,1420.3,1770.7,1297.5L1770.7,1297.5z"/>
	<path class="st2" d="M1770.7,1297.5c-4.2-15.3-60-166-266.5-121.4c-121.4,323.7-76.7,457.6-58.6,516.2
		c-82.3,104.6-120,127-103.2,339h108.8c50.2-79.5,61.4-108.8,64.2-213.5c0-4.2-15.3,8.4-26.5,22.3c8.4-43.2,32.1-51.6,50.2-78.1
		c8.4-11.2,15.3-27.9,15.3-50.2c97.7-65.6,133.9-147.9,154.9-233C1726.1,1420.3,1745.6,1324,1770.7,1297.5L1770.7,1297.5z"/>
	<g>
		<path class="st0" d="M1426.1,1072.9c0,0,37.7,1.4,71.2,12.6c32.1,11.2,32.1,18.1,44.6,32.1c12.6,14,43.2,34.9,37.7,55.8
			c-2.8,11.2-9.8,14-19.5,23.7c-4.2,4.2-34.9,37.7-41.9,41.9c-4.2,2.8-9.8,7-14,9.8l-20.9,14c-14,7-23.7,11.2-39.1,9.8
			c0,0-34.9-1.4-57.2-25.1c0,0-2.8-11.2,2.8-16.7c0,0-29.3-25.1-37.7-41.9c-8.4-16.7-8.4-40.5-2.8-53
			C1352.2,1123.1,1406.6,1088.3,1426.1,1072.9L1426.1,1072.9z M1461,2430.5l-4.2,34.9c0,0-12.6,15.3-106,14
			c-94.9-1.4-120-30.7-128.4-46l-5.6-36.3c0,0,18.1-26.5,22.3-26.5c30.7,2.8,135.3,44.6,207.9,55.8
			C1454,2426.3,1455.4,2429.1,1461,2430.5L1461,2430.5z M1663.3,2359.3c0,15.3-1.4,15.3-1.4,30.7c16.7,12.6,58.6,19.5,138.1,18.1
			c115.8-2.8,223.2,34.9,354.4,12.6l1.4-25.1l-12.6-1.4l-464.6-37.7L1663.3,2359.3z"/>
		<path class="st0" d="M1765.1,2408.1h34.9c75.3-2.8,146.5,14,223.2,18.1c40.5-1.4,90.7-11.2,86.5-40.5l-396.2-33.5
			C1689.8,2378.8,1707.9,2401.1,1765.1,2408.1L1765.1,2408.1z M1310.3,1820.7c12.6,8.4,97.7,58.6,235.8,51.6
			c-2.8,26.5-1.4,78.1-62.8,168.8c-30.7,44.6-57.2,122.8-62.8,221.8c1.4,22.3,14,41.9-2.8,71.2c5.6,18.1,27.9,54.4,39.1,76.7
			c11.2,22.3,16.7,47.4-57.2,48.8c-75.3,1.4-196.7-7-180-65.6c8.4-30.7,32.1-62.8,34.9-75.3c2.8-12.6,2.8-50.2,26.5-75.3
			c20.9-69.8,14-136.7,9.8-199.5C1283.8,1978.4,1282.4,1873.8,1310.3,1820.7L1310.3,1820.7z M1440.1,683.6
			c99.1-132.6,15.3-238.6-143.7-206.5c-64.2,12.6-128.4,57.2-132.6,138.1c-20.9,2.8-68.4,5.6-92.1,92.1c-18.1,67-27.9,79.5-60,113
			c-20.9,23.7,1.4,72.6,16.7,107.4c51.6,120,210.7,131.1,318.1,221.8c36.3-9.8,73.9-50.2,85.1-76.7
			c-90.7-107.4-71.2-149.3-107.4-205.1C1363.3,853.9,1452.6,799.4,1440.1,683.6L1440.1,683.6z"/>
	</g>
	<path class="st2" d="M1420.5,675.3c5.6-8.4,15.3-26.5,19.5-33.5c1.4-1.4,16.7,25.1,18.1,23.7c37.7-61.4,47.4-150.7,4.2-159.1
		c-9.8-1.4-27.9-5.6-43.2-11.2c-27.9-9.8-53-9.8-97.7-1.4c-61.4,11.2-122.8,55.8-122.8,120c0,4.2,43.2,16.7,55.8,68.4
		c-20.9-29.3-57.2-61.4-100.5-33.5c-46,29.3-22.3,96.3-83.7,166c-20.9,23.7-18.1,51.6,4.2,107.4c36.3,87.9,207.9,135.3,301.4,219
		c22.3-9.8,37.7-32.1,48.8-48.8c-62.8-65.6-87.9-127-106-171.6c-22.3-51.6-47.4-80.9-96.3-120c25.1,9.8,44.7,19.5,55.8,27.9
		c12.6,8.4,30.7,9.8,47.4,4.2C1385.6,812,1417.7,728.3,1420.5,675.3L1420.5,675.3z"/>
	<path class="st0" d="M2027.4,697.6c-4.2,53-43.2,26.5-64.2,16.7c-41.9-18.1-83.7-30.7-132.6-30.7s-111.6,4.2-166,18.1
		c-75.3,20.9-97.7,19.5-131.2,2.8c-33.5-18.1-92.1-62.8-92.1-62.8s-1.4,14,12.6,32.1c18.1,22.3,58.6,50.2,113,68.4
		c26.5,8.4,47.4,2.8,71.2-2.8c124.2-30.7,255.3-36.3,365.5,30.7c5.6,2.8,25.1-5.6,33.5-18.1C2048.4,733.9,2027.4,697.6,2027.4,697.6
		z"/>
	<path class="st3" d="M1392.6,1229.2c11.2,7,25.1,11.2,40.5,23.7c0,0-12.6,0-18.1-5.6C1408,1243.1,1394,1230.6,1392.6,1229.2z"/>
	<path class="st2" d="M1795.8,122.8c-4.2-12.6-34.9-34.9-106-34.9c-76.7,0-99.1,23.7-100.5,36.3c0,4.2-5.6,48.8-7,67
		c0,0,0,22.3,1.4,55.8c1.4,22.3,7,34.9,9.8,64.2c2.8,30.7,11.2,50.2,26.5,75.3c7,4.2,12.6,8.4,19.5,9.8c27.9,5.6,76.7,7,103.2,0
		c15.3-4.2,34.9-30.7,39.1-54.4c5.6-29.3,11.2-50.2,12.6-68.4c2.8-18.1,4.2-58.6,5.6-69.8C1804.2,173,1797.2,125.6,1795.8,122.8
		L1795.8,122.8z"/>
	<path class="st0" d="M1649.3,1847.3c0,0,74,32.1,256.7,4.2c0,0-51.6,259.5-27.9,389.3c0,0,23.7,33.5,199.5,97.7
		c0,0,78.1,19.5,75.3,58.6c0,0,2.8,8.4-92.1,5.6c-94.9-2.8-184.2-19.5-247-19.5c-62.8,0-129.8,2.8-140.9-15.3
		c-12.6-16.7,2.8-60,20.9-85.1c19.5-26.5,14-46,12.6-93.5C1702.3,2064.9,1607.5,1936.5,1649.3,1847.3L1649.3,1847.3z"/>
	<path class="st1" d="M1634,1871c-9.8,14,1.4,67,15.3,118.6c14,51.6,44.7,82.3,51.6,167.4c7,83.7,8.4,94.9-15.4,143.7
		s-30.7,93.5,51.6,94.9c82.3,1.4,127-1.4,210.7,11.2c83.7,12.6,113,16.7,159.1,9.8s55.8-22.3,36.3-36.3
		c-19.5-14-100.5-29.3-135.3-57.2c-33.5-25.1-128.4-67-129.7-78.1c-4.2-37.7-5.6-174.4,1.4-219c7-44.7,16.7-108.8,19.5-125.6
		c2.8-16.7,16.7-33.5-7-27.9c-23.7,5.6-113,18.1-180,14C1645.1,1882.1,1638.2,1866.8,1634,1871L1634,1871z"/>
	<path class="st4" d="M1681.4,2302.1c23.7,11.2,58.6,19.5,85.1,19.5c0,0-9.8,46,5.6,73.9c15.3,27.9-111.6,11.2-111.6,11.2l-5.6-99.1
		L1681.4,2302.1z M2051.2,2422.1c22.3-7,37.7-32.1,19.5-55.8c-19.5-23.7-36.3-27.9-11.2-29.3c25.1-1.4,117.2,54.4,117.2,54.4
		l-47.4,43.2L2051.2,2422.1z M1629.8,1925.4c32.1,11.2,80.9,14,122.8,12.6c41.9-1.4,104.6-7,145.1-20.9c40.5-14,23.7,15.3,23.7,15.3
		l-22.3,20.9c0,0-53,20.9-139.5,19.5c-101.8-1.4-132.6-12.6-132.6-12.6L1629.8,1925.4z M1632.6,1995.1c32.1,11.2,80.9,14,122.8,12.6
		c41.9-1.4,97.7-1.4,138.1-16.7c16.7-5.6,7,18.1,7,18.1l-7,12.6c0,0-54.4,19.5-139.5,18.1c-101.8-1.4-120-9.8-120-9.8L1632.6,1995.1
		z"/>
	<path class="st5" d="M1649.3,1847.3c0,0,121.4,43.2,258.1,14c0,0-53,249.7-29.3,378.1c0,0,23.7,33.5,199.5,97.7
		c0,0,78.1,19.5,75.3,58.6c0,0,2.8,8.4-92.1,5.6c-94.9-2.8-184.2-19.5-247-19.5c-62.8,0-129.8,2.8-140.9-15.3
		c-12.6-16.7,2.8-60,20.9-85.1c19.5-26.5,14-46,12.6-93.5C1702.3,2064.9,1607.5,1936.5,1649.3,1847.3L1649.3,1847.3z"/>
	<path class="st5" d="M1649.3,1847.3c0,0,121.4,41.9,258.1,12.6c0,0-53,251.1-29.3,379.5c0,0,23.7,33.5,199.5,97.7
		c0,0,78.1,19.5,75.3,58.6c0,0,2.8,8.4-92.1,5.6c-94.9-2.8-185.6-29.3-247-19.5c-65.6,11.2-129.8,7-140.9-15.3
		c-9.8-18.1,2.8-60,20.9-85.1c19.5-26.5,14-46,12.6-93.5C1702.3,2064.9,1607.5,1936.5,1649.3,1847.3L1649.3,1847.3z"/>
	<path class="st0" d="M1540.5,1017.1c0,9.8,108.8,64.2,168.8,75.3c60,11.2,185.6,0,205.1-4.2l-2.8,19.5c0,0-149.3,22.3-263.7-8.4
		c-114.4-30.7-101.8-37.7-101.8-37.7L1540.5,1017.1z"/>
	<path class="st2" d="M1307.5,2207.2c16.7,8.4,76.7,23.7,115.8,15.4c5.6-1.4,0-96.3,15.4-139.5c22.3-60,58.6-108.8,75.3-214.9
		c-58.6-5.6-125.6-20.9-160.4-32.1C1308.9,1972.8,1324.2,2090,1307.5,2207.2L1307.5,2207.2z M1401,2295.1c9.8,2.8,16.7,13.9,19.5,7
		c5.6-12.6-9.8-36.3-11.2-53v-1.4c-12.6-11.2-97.7-12.6-92.1-7c-9.8,18.1-25.1,15.4-30.7,51.6c-2.8,18.1,19.5,2.8,40.5,1.4
		c-37.7,25.1-80.9,57.2-87.9,85.1c-8.4,39.1,5.6,50.2,47.4,71.2c36.3,8.4,79.5,9.8,113,8.4c37.7-7,44.7-25.1,33.5-50.2
		C1416.3,2370.5,1405.2,2321.6,1401,2295.1L1401,2295.1z"/>
	<path class="st0" d="M1416.3,482.7c46,26.5,110.2,19.5,133.9,18.1c5.6,0,61.4-9.8,64.2-8.4c5.6,1.4,5.6,5.6,5.6,5.6
		s-20.9,11.2-68.4,13.9c-44.6,2.8-97.7,0-127-13.9C1389.8,482.7,1416.3,482.7,1416.3,482.7L1416.3,482.7z M1890.7,509.2
		c8.4,5.6,62.8,26.5,86.5,51.6c20.9,22.3,9.8,20.9,5.6,15.4c-5.6-7-48.8-36.3-65.6-43.2c-16.7-7-37.7-19.5-37.7-22.3
		C1879.5,507.9,1890.7,509.2,1890.7,509.2L1890.7,509.2z"/>
	<path class="st2" d="M1409.3,1088.3c40.5-2.8,82.3,7,108.8,34.9c14,14,36.3,29.3,33.5,43.2c0,4.2-8.4,15.4-15.3,23.7
		c-4.2,5.6-16.7,18.1-20.9,22.3c-5.6,4.2-25.1,19.5-29.3,22.3c-4.2,2.8-9.8,9.8-14,11.2c-13.9,7-29.3,1.4-43.2-5.6
		c-13.9-7,2.8-8.4-12.6-19.5c-37.7-26.5-58.6-44.7-43.2-96.3C1374.5,1114.8,1389.8,1103.6,1409.3,1088.3L1409.3,1088.3z"/>
	<path class="st6" d="M1053.6,768.8C928,819,608.5,978,517.8,1026.9c75.3,47.4,110.2,161.8,121.4,277.6c1.4,11.2,2.8,20.9,4.2,32.1
		c1.4,9.8,2.8,16.7,4.2,20.9c0,1.4,0,4.2,1.4,5.6c82.3-224.6,376.7-461.8,387.9-480c5.6-8.4-7-44.6,12.6-79.5
		C1074.5,759,1123.3,739.5,1053.6,768.8L1053.6,768.8z M1352.2,1822.1c64.2-128.4,65.6-251.1,64.2-394.8c0-60,43.2-145.1,20.9-121.4
		c-83.7,93.5-294.4,269.3-446.5,279C1204.3,1578,1288,1685.4,1352.2,1822.1z"/>
	<path class="st0" d="M395,1145.5c79.5-57.2,491.1-276.2,590.2-306.9c99.1-32.1,68.4-69.8,68.4-69.8s-401.8,173-641.8,322.3"/>
	<path class="st6" d="M1567,742.2c-32.1-12.6-57.2,25.1-48.8,61.4c8.4,36.3,83.7,76.7,79.5,209.3c-2.8,108.8-26.5,153.5-26.5,153.5
		l-53-67c0,0-8.4-150.7-26.5-173c-18.1-22.3-75.3-62.8-97.7-83.7c-22.3-20.9,25.1-48.8,22.3-87.9c-2.8-37.7,23.7-113,23.7-113
		L1567,742.2z M1761,1336.6c-2.8,104.6,20.9,259.5,30.7,333.5c9.8,73.9,22.3,79.5,0,113c-22.3,32.1-51.6,85.1-51.6,85.1l-96.3-8.4
		c0,0,76.7-97.7,80.9-115.8c4.2-18.1-39.1-156.3-39.1-156.3L1761,1336.6z M1575.4,360c19.5,43.2,43.2,62.8,80.9,75.3
		c22.3,8.4,110.2,19.5,145.1-19.5c15.3-18.1,5.6-67,5.6-67l-79.5,64.2L1620,393.4l-12.6-32.1L1575.4,360z"/>
	<path class="st7" d="M1583.8,456.2c36.3,23.7,127,46,152.1,50.2c25.1,5.6,65.6-26.5,85.1-34.9c20.9-9.8,57.2-15.4,99.1,22.3
		c4.2,4.2-9.8,22.3-9.8,22.3c-1.4-1.4-9.8-1.4-20.9-7c-11.2-5.6-20.9-9.8-37.7-8.4c-69.8,8.4-80.9,32.1-142.3,18.1
		c-61.4-14-76.7-25.1-136.7-22.3"/>
	<path class="st1" d="M1571.2,460.4c46,19.5,135.3,40.5,160.4,46c25.1,5.6,65.6-19.5,85.1-32.1c34.9-22.3,79.5-4.2,100.5,19.5
		c13.9,15.3,19.5,25.1,19.5,29.3c0,5.6-16.7,0-16.7,0c-9.8-4.2-20.9-5.6-29.3-11.2c-11.2-5.6-22.3-13.9-39.1-12.6
		c-69.8,8.4-83.7,32.1-143.7,18.1s-75.3-26.5-139.5-22.3"/>
	<path class="st0" d="M1354.9,1763.5c-2.8-2.8,2.8-5.6,0-5.6c-18.1,0-43.2-14-57.2-33.5c-60-86.5-147.9-143.7-306.9-139.5
		c-238.6,5.6-333.5-92.1-351.6-279c-9.8-101.8-37.7-200.9-94.9-256.7l-33.5,20.9c64.2,55.8,85.1,146.5,99.1,270.7
		c22.3,187,173,273.5,348.8,276.3c182.8,2.8,248.3,40.5,316.7,132.6c22.3,29.3,47.4,39.1,67,43.2L1354.9,1763.5z"/>
	<path class="st6" d="M2002.3,866.4c4.2,20.9,15.3,61.4,37.7,80.9c9.8,9.8,11.2,12.6,2.8,12.6c-8.4,0-69.8-2.8-69.8-2.8l-16.7-29.3
		L2002.3,866.4z"/>
</g>
<g>
	<path class="st8" d="M2722.7,1614.6c0,0,0,0.2,0,0.3l-23.5,103.2c-1.3,5.8-7,10.1-13.7,10.1h-28.4c-2.1,0-4,1.4-4.6,3.4
		c-26.2,89.9-61.7,151.6-108.6,188.7c-39.9,31.6-89,46.3-154.7,46.3c-59,0-98.8-19.2-132.5-57c-44.6-50-63-131.9-51.9-230.6
		c20.2-185.3,115.2-372.2,298.3-372.2c55.7-0.5,99.4,16.9,129.8,51.5c32.2,36.7,48.5,91.9,48.6,164.1c-0.1,6.6-5.5,11.9-12,11.9
		h-134.1c-4.7,0-9-4.3-8.9-9.1c-1.1-50-15.8-74.3-44.9-74.3c-51.4,0-81.8,70.5-97.8,109.7c-22.5,54.6-33.9,113.9-31.6,173
		c1.1,27.5,5.4,66.2,31.3,82.2c22.9,14.2,55.6,4.8,75.4-10.9c19.8-15.7,35.7-43,42.4-67.8c0.9-3.4,1-6.1,0.1-7.3
		c-0.9-1.2-3.6-1.5-5.5-1.5h-34.4c-3.7,0-7.4-1.7-9.6-4.5c-1.8-2.3-2.6-5.2-1.9-8l23.6-103.4c1.2-5.3,5.9-9.3,11.7-10v-0.3h226
		c0.5,0,1.1,0,1.6,0.1C2718.6,1603.1,2722.8,1608.6,2722.7,1614.6L2722.7,1614.6z"/>
	<path class="st8" d="M3111.9,1496c-0.1,6.5-5.5,11.7-12,11.7h-123.6c-8.1,0-14.9-6.6-14.9-14.7c0-36.4-12.5-54.2-38-54.2
		c-25.5,0-42,15.8-42.5,43.5c-0.5,30.9,16.7,58.9,65.9,107.1c64.7,61.3,90.6,115.7,89.4,187.5c-2,116.2-80.2,191.2-199.1,191.2
		c-60.7,0-107.1-16.4-138-48.8c-31.3-32.9-45.7-81.1-42.7-143.4c0.1-6.5,5.5-11.7,12-11.7h127.8c3.5,0,6.9,1.7,9.2,4.6
		c2,2.5,2.8,5.6,2.3,8.5c-1.4,22.5,2.5,39.3,11.2,48.5c5.6,6,13.4,9.1,23.2,9.1c23.6,0,37.5-16.9,38-46.2
		c0.4-25.4-7.5-47.6-50.8-92.6c-55.9-55.2-106-112.2-104.5-201.9c0.9-52,21.4-99.6,57.6-133.9c38.3-36.3,90.7-55.5,151.5-55.5
		c60.9,0.4,107.1,18,137.2,52.2C3099.7,1389.3,3113.5,1436.1,3111.9,1496L3111.9,1496z"/>
	<path class="st8" d="M3494.9,1946.3l0.8-617.7c0.1-6.5-5.1-11.8-11.6-11.8h-191.2c-6.4,0-9.2,5.6-11.1,9.3l-276.9,616.5v0.1
		c0,0-0.1,0.1-0.1,0.1c-3.1,7.6,2.8,15.7,10.9,15.7h133.7c7.2,0,12-2.2,14.4-6.8l26.5-64.5c3.3-8.6,3.9-9.4,13.2-9.4h127.7
		c8.9,0,9.1,0.2,8.9,9l-2.9,59.9c-0.1,6.5,5.1,11.8,11.6,11.8h135c3.4,0,6.7-1.5,8.8-4C3494.5,1952.2,3495.3,1949.3,3494.9,1946.3z
		 M3258.3,1740.1c-1.2,0-2.2,0-3-0.1c-2-0.2-3.3-2.1-2.8-4.1c0.3-0.9,0.6-2.1,1.2-3.6l95.8-239.5c0.8-2.4,1.9-4.7,3-6.9
		c1.6-3.2,3.4-3.4,4-1.1c0.5,2-11,245.9-11,245.9c-0.9,9.1-1.3,9.5-10.2,10.3l-76.8-0.9L3258.3,1740.1L3258.3,1740.1z"/>
	<path class="st8" d="M3767.3,1316.8h-101.5c-5.4,0-11.4,2.9-12.8,9.3c0,0-141.3,619.8-141.3,619.9c-0.6,2.9,0,5.7,1.9,8
		c2.2,2.8,5.9,4.5,9.6,4.5h126.9c6.8,0,11.5-3.4,12.8-9.2c0,0,15.4-70,15.4-70.3c1.1-5.5-0.8-9.7-5.7-12.3c-2.3-1.2-4.6-2.4-6.8-3.6
		l-22-11.6l-21.9-11.5c-2.8-1.5-5.7-3-8.4-4.5c-1.4-0.7-2.3-2.2-2.2-3.8c0-2.4,2-4.3,4.3-4.3l69.5,0.3c20.8,0.1,41.6-1.4,62.1-5.2
		c144-26.9,239.6-143.4,242.4-302c2.4-135.3-72.4-203.9-222.1-203.9L3767.3,1316.8z M3732.8,1685.7h-2.7c-6.1,0-7.2-0.7-7.4-0.9
		c-0.1-0.1,40.1-178.5,40.1-178.8c1-5.1,1-8.1-2.2-9.9c-4-2.2-62.7-33.5-62.7-33.5c-1.4-0.8-2.2-2.2-2.2-3.8c0-2.3,2-4.2,4.3-4.2
		h92.8c28.9,0.9,45,27,44.2,71.6C3835.7,1603.4,3799.4,1683,3732.8,1685.7z"/>
	<path class="st8" d="M3870.6,1958.5c20.9,0,37.2-16.1,37.2-37.7c0-21.6-16.3-37.7-37.2-37.7s-37.4,16.1-37.4,37.7
		C3833.1,1942.4,3849.6,1958.5,3870.6,1958.5z M3842,1920.7c0-18.4,10.9-30.4,28.5-30.4c17.6,0,28.3,12,28.3,30.4
		c0,18.4-10.7,30.5-28.3,30.5C3852.9,1951.2,3842,1939.2,3842,1920.7z M3854.2,1940.9h11.9v-14.5h3.4c8.9,0,5,12.8,7.2,14.5h12.3
		v-0.6c-2.3-0.6,1.4-16.7-8.9-18.4v-0.2c5-1.1,8.2-4.7,8.2-10.1c0-7.8-5.6-12-14.7-12h-19.5L3854.2,1940.9L3854.2,1940.9z
		 M3866.1,1917.6v-9.7h4.1c4.1,0,6.4,1.3,6.4,4.8c0,3.3-2.3,4.8-6.4,4.8L3866.1,1917.6L3866.1,1917.6z"/>
</g>
</svg>
