<?xml version="1.0" encoding="utf-8"?>
<!-- Generator: Adobe Illustrator 24.0.2, SVG Export Plug-In . SVG Version: 6.00 Build 0)  -->
<svg version="1.1" id="레이어_1" xmlns="http://www.w3.org/2000/svg" xmlns:xlink="http://www.w3.org/1999/xlink" x="0px"
	 y="0px" viewBox="0 0 130.8 70.7" style="enable-background:new 0 0 130.8 70.7;" xml:space="preserve">
<style type="text/css">
	.st0{fill:#FEFEFE;}
	.st1{fill:#F7F7F7;}
	.st2{fill:#F9F9F9;}
	.st3{fill:#74C008;}
	.st4{fill:#FAFAFA;}
	.st5{fill:#F4F4F4;}
	.st6{fill:#73BF08;}
	.st7{fill:#F6F6F6;}
	.st8{fill:#74C108;}
	.st9{fill:#F8F8F8;}
	.st10{fill:#72BD08;}
	.st11{fill:#71BC08;}
	.st12{fill:#76C308;}
	.st13{fill:#8A8A8A;}
	.st14{fill:#8B8B8B;}
	.st15{fill:#8C8C8C;}
	.st16{fill:#868686;}
	.st17{fill:#898989;}
	.st18{fill:#929292;}
	.st19{fill:#878787;}
	.st20{fill:#010101;}
	.st21{fill:#020400;}
	.st22{fill:#050505;}
	.st23{fill:#070C00;}
	.st24{fill:#0F0F0F;}
	.st25{fill:#030303;}
	.st26{fill:#75C208;}
</style>
<g>
	<path d="M130.6,70.7c-43.5,0-87,0-130.6,0c0-23.5,0-47,0-70.5c43.5,0,87.1,0,130.6,0C130.6,23.8,130.6,47.2,130.6,70.7z
		 M119.2,34.3c0-0.8,0-1.6,0-2.5c0-1.6,0.2-3.2-0.1-4.7c-0.8-4.8-4.8-8.1-9.6-8.1c-5,0-9.3,3.9-9.5,8.9c-0.2,4.3-0.2,8.6,0,12.9
		c0.2,5,4.4,8.9,9.4,9c6.1,0.1,10.1-5.2,9.9-9.6C119.1,38.2,119.2,36.3,119.2,34.3z M12.2,35.8c-0.1,0.1-0.3,0.3-0.4,0.6
		c-0.5,0.8-0.4,1.1,0.5,1.5c1.3,0.6,2.7,0.9,4.1,0.6c1.6-0.3,2.6-1.2,2.9-2.6c0.2-1.5-0.5-2.7-2-3.5c-0.7-0.3-1.4-0.6-2.1-0.9
		c-0.5-0.2-1.1-0.5-0.9-1.2c0.2-0.7,0.8-0.9,1.4-0.8c0.9,0.1,1.8,0.4,2.7,0.6c0.1-0.1,0.3-0.3,0.4-0.6c0.5-0.9,0.4-1.2-0.5-1.4
		c-1.1-0.3-2.2-0.5-3.3-0.5c-1.6,0-2.8,1.2-3.1,2.4c-0.3,1.5,0.3,2.6,2,3.4c0.7,0.3,1.4,0.6,2,0.9c0.6,0.3,1.1,0.7,0.9,1.4
		c-0.2,0.7-0.8,0.9-1.5,0.8C14.3,36.5,13.3,36.1,12.2,35.8z M67.4,41.3c1,0.2,1.8,0.4,2.7,0.4c2,0.1,3.1-0.9,3.2-2.9
		c0.1-1.8,0.1-3.6,0.1-5.5c0-0.4,0-0.9,0.1-1.3c0.1-0.4,0.5-1-0.1-1.2c-0.3-0.1-0.7,0.2-1.1,0.4c-0.1,0-0.1,0-0.2,0
		c-2-1.2-3.8-0.7-4.6,1.2c-0.6,1.5-0.5,3.1,0.2,4.6c0.5,1,1.3,1.5,2.4,1.3c0.6-0.1,1.2-0.4,2-0.6c-0.3,0.9-0.3,1.8-0.8,2.3
		c-1,1-2.3,0.3-3.5,0C67.7,40.5,67.6,40.8,67.4,41.3z M75.1,41.3c0.9,0.2,1.7,0.4,2.5,0.4c2.1,0.1,3.3-0.9,3.4-3
		c0.1-1.8,0.1-3.6,0.1-5.5c0-0.5,0.2-1,0.2-1.6c0-0.3,0-0.7-0.2-0.9c-0.1-0.1-0.5,0-0.8,0.1c-0.2,0.1-0.3,0.2-0.5,0.3
		c-2.4-1.6-4.3-0.3-4.8,1.8c-0.2,0.7-0.2,1.5-0.1,2.2c0.3,3.1,1.8,3.9,4.6,2.6c0.1,0.8,0.2,1.7-0.5,2.3c-1.1,0.9-2.3,0.3-3.5,0
		C75.4,40.4,75.3,40.8,75.1,41.3z M40.5,34.6c0-2.7-1.3-4.1-3.7-4.1c-1.8,0.1-3,1.3-3.2,3.1c-0.3,2.5,0.6,4.3,2.4,4.8
		C38.5,39.2,40.5,37.5,40.5,34.6z M26.6,37.4c-0.3-0.4-0.6-0.9-0.8-1.2c-0.6,0.2-1,0.4-1.4,0.6c-0.6,0.2-1.4,0-1.5-0.6
		c-0.2-1.1-0.1-2.3,0-3.4c0-0.2,0.6-0.4,0.8-0.4c0.3,0,0.6,0.4,0.7,0.6c0.1,0.3,0.1,0.7,0.2,1.1c0.7,0.1,1.4,0.3,1.8-0.4
		c0.4-0.7,0.2-1.4-0.3-2.1c-0.2-0.3-0.5-0.5-0.9-0.7c-2-1.1-4.4,0.1-4.9,2.3c-0.1,0.7-0.1,1.5-0.1,2.3c0.1,1.4,0.7,2.5,2.1,3
		C23.9,38.9,25.3,38.5,26.6,37.4z M50.1,38.2c-0.1-0.6-0.1-1.1-0.1-1.6c-1.1,0.2-1.2-0.4-1.2-1.1c0-2.3,0-4.5,0-6.8
		c0-1.6-0.6-2-2.2-1.5c0,2.9,0,5.8,0,8.8c0,2.2,0.7,2.7,2.8,2.4C49.5,38.4,49.7,38.3,50.1,38.2z M88.8,35.1c0.1-0.4,0.1-0.8,0.1-1.2
		c0-1.9-1-3.1-2.7-3.3c-1.7-0.2-3,0.9-3.3,2.7c-0.1,0.8-0.1,1.6,0,2.4c0.1,1.1,0.6,2.2,1.8,2.6c1.3,0.5,2.6,0.2,3.8-0.5
		c0.1-0.1,0.2-0.5,0.1-0.7c-0.1-0.1-0.4-0.3-0.6-0.3c-0.5,0.1-1,0.3-1.5,0.4c-1.4,0.2-2.2-0.7-1.9-2.2
		C85.9,35.1,87.3,35.1,88.8,35.1z M45.6,38.2c-0.3-0.6-0.4-1.4-0.7-1.5c-0.7-0.2-0.8-0.6-0.8-1.1c0-2.3,0-4.6,0-6.9
		c0-0.3,0-0.7-0.1-1c-0.1-0.6-0.9-0.9-1.8-0.8c-0.7,0.1-0.4,0.6-0.4,1c0,2.6,0,5.3,0,7.9c0,2.2,0.7,2.8,2.8,2.5
		C44.9,38.4,45.1,38.3,45.6,38.2z M54.9,38.4c0-3.1,0-6.1,0-9.1c0.8,0,1.5,0,2.2-0.1c0.2,0,0.4-0.4,0.6-0.7c0-0.1-0.3-0.5-0.4-0.5
		c-2.2,0-4.4,0-6.6,0c-0.3,1.2-0.2,1.3,0.9,1.3c0.6,0,1.1,0,1.8,0c0,1.6,0,3.1,0,4.6c0,1.5,0,3,0,4.5C53.9,38.4,54.4,38.4,54.9,38.4
		z M30.1,31.8c-0.5-0.4-0.8-0.8-1.2-1c-0.3-0.1-0.8-0.1-1,0.1c-0.2,0.3-0.2,0.8-0.2,1.1c0,0.5,0.3,1.1,0.3,1.6c0,1.6,0,3.1,0,4.7
		c0.8,0,1.5,0,2.3,0c0-1.5,0-2.9,0-4.4c0-0.8,0.5-1.1,1.2-1.2c0.3,0,0.6,0,1,0c0.2-0.7,0.3-1.4,0.5-2.1
		C31.7,30.5,30.7,30.6,30.1,31.8z M92.3,38.4c0-1.6,0-3.1,0-4.6c0-0.9,0.7-1.7,1.6-1.7c1.2,0.1,0.9-0.7,1-1.4
		c-1.2-0.3-2.1,0-2.7,1.1c-0.3-0.3-0.5-0.7-0.8-0.9c-0.2-0.1-0.7-0.2-0.7-0.1c-0.2,0.2-0.2,0.6-0.2,0.9c0.1,0.5,0.3,1.1,0.3,1.6
		c0,1.7,0,3.3,0,5C91.3,38.4,91.7,38.4,92.3,38.4z M62.3,30.8c-1.2-0.4-2.1,0.1-2.7,1c-0.4-0.3-0.6-0.7-1-0.9
		c-0.1-0.1-0.5-0.1-0.6,0c-0.2,0.2-0.3,0.5-0.3,0.7c0.8,1.3,0.3,2.7,0.4,4.1c0.1,0.9,0,1.9,0,2.9c0.6,0,1,0,1.5-0.1c0-1.6,0-3,0-4.5
		c0-0.9,0.7-1.8,1.5-1.7C62.3,32.2,62.3,31.6,62.3,30.8z M65.5,38.4c0-2.2,0-4.4,0-6.5c0-1-1.2-1.5-2-1.1c-0.2,0.1-0.1,1-0.1,1
		c0.8,0.2,0.7,0.7,0.7,1.2c0,1.7,0,3.5,0,5.3C64.6,38.4,65,38.4,65.5,38.4z M65.1,47c-0.2,0.5-0.2,1.2-0.5,1.3
		c-0.9,0.5-2-0.1-2.1-1.1c-0.1-0.5-0.1-1,0-1.5c0.1-1.3,1-1.8,2.2-1.3c0.2,0.1,0.5,0.1,0.7,0.2c0-0.1,0.1-0.2,0.1-0.3
		c-0.5-0.5-1.1-0.6-1.8-0.6c-0.8,0.1-1.5,0.6-1.6,1.4c-0.1,0.8-0.2,1.8,0,2.6c0.3,1.2,2.3,1.7,3.2,1c0.1-0.1,0.2-0.3,0.2-0.4
		c0-0.6,0-1.2,0-1.9c-0.6,0-1.1,0-1.5,0.1c0,0.1,0,0.2,0,0.3C64.3,46.8,64.6,46.9,65.1,47z M80.6,48.1c-0.1,0-0.1,0.1-0.2,0.1
		c0.1,0.2,0.2,0.4,0.4,0.5c0.6,0.1,1.1,0.2,1.7,0.2c0.6,0,1.1-0.3,1.2-1c0.1-0.7-0.1-1.2-0.8-1.5c-0.4-0.2-0.8-0.3-1.1-0.5
		c-0.3-0.2-0.4-0.6-0.7-1c0.4-0.2,0.7-0.5,1.1-0.6c0.3-0.1,0.6,0.1,0.9,0.2c0.1,0,0.3-0.1,0.4-0.2c0-0.1,0-0.2,0-0.3
		c-0.6-0.1-1.2-0.2-1.8-0.2c-0.7,0-1.2,0.4-1.3,1.1c-0.1,0.6,0.3,1.1,0.8,1.3c0.4,0.2,0.9,0.3,1.2,0.6c0.3,0.2,0.6,0.7,0.5,0.9
		c-0.1,0.3-0.6,0.6-1,0.7C81.6,48.5,81.1,48.2,80.6,48.1z M53.7,43.5c-0.1,0-0.2,0-0.4,0c0,1.7,0,3.3,0,5c0,0.1,0.3,0.3,0.5,0.4
		c1.7,0.3,2.7-0.9,2.1-2.7c-0.2-0.8-0.8-1.1-1.6-0.9c-0.2,0-0.4,0.1-0.5,0.1C53.8,44.7,53.7,44.1,53.7,43.5z M94.6,45.4
		c-0.1-0.1-0.2-0.1-0.3-0.2c-0.5,0.6-1,1.1-1.5,1.7c-0.4-1.2,0.1-2.4-0.5-3.3c0,1.8,0,3.5,0,5.3c0.1,0,0.2,0,0.3,0
		c0.1-0.5,0.1-1,0.2-1.5c0.6-0.2,0.9,0.1,1.1,0.6c0.2,0.4,0.2,1,1,0.9c-0.4-0.7-0.8-1.4-1.2-2.1C93.9,46.3,94.2,45.8,94.6,45.4z
		 M56.6,50.2c0,0.1,0,0.2,0,0.2c0.6,0,1.2,0.2,1.5-0.5c0.6-1.5,1-3,1.6-4.6c-0.1-0.1-0.3-0.1-0.4-0.2c-0.6,0.9-0.6,2.1-1.1,3.1
		c-0.2-0.6-0.4-1.2-0.6-1.7c-0.4-1.2-0.4-1.2-1-1.2c0.4,1.1,0.7,2.2,1.1,3.3c0.3,0.6,0.1,1.2-0.6,1.3C57,50.1,56.8,50.1,56.6,50.2z
		 M71.8,47.3c0.4-1.7-0.9-2.3-1.7-2c-0.7,0.3-1,0.9-1,1.6c0,0.8,0,1.6,0.8,2c0.7,0.3,1.4,0.2,2-0.5c-1,0.1-2.1,0.6-2.2-1.1
		C70.4,47.3,71,47.3,71.8,47.3z M75.5,47.2c0.2-1.3-0.2-2-1.1-2.1c-0.9-0.1-1.6,0.5-1.6,1.6c0,0.5,0,1,0.2,1.3
		c0.3,0.4,0.8,0.7,1.2,0.8c0.4,0.1,0.9-0.2,1.3-0.3c0-0.1-0.1-0.2-0.1-0.2c-1.9,0-1.9,0-2.1-1.1C74.1,47.2,74.8,47.2,75.5,47.2z
		 M87.6,47.1c0-1.2-0.6-1.9-1.5-1.9c-0.9,0-1.5,0.7-1.5,1.8c0,1.3,0.5,2,1.5,2C87,49,87.6,48.3,87.6,47.1z M79.1,48.9
		c0.1,0,0.2-0.1,0.3-0.1c0-0.8,0-1.6,0-2.4c0-1.1-0.5-1.4-1.5-1.1c-0.3,0.1-0.7,0.1-1,0.1c0,1.1,0,2.2,0,3.4
		c0.2-0.1,0.4-0.2,0.4-0.4c0-0.6,0-1.3,0-1.9c0-0.7,0.6-0.9,1.1-0.8c0.2,0,0.5,0.5,0.5,0.8c0.1,0.6,0,1.2,0,1.8
		C78.9,48.5,79.1,48.7,79.1,48.9z M91,48.4c0-0.1-0.1-0.2-0.1-0.3c-0.2,0.1-0.5,0.3-0.7,0.2c-0.4-0.1-1-0.2-1.1-0.4
		c-0.1-0.6-0.2-1.3,0-1.9c0.2-0.7,1-0.6,1.3,0.1c0.1,0.1,0.1,0.3,0.2,0.5c0.6-0.4,0.3-0.8,0-1.1c-0.7-0.7-2.1-0.3-2.3,0.8
		c-0.1,0.4-0.2,0.9,0,1.2c0.2,0.5,0.5,1.1,0.9,1.4C89.9,49.2,90.6,49,91,48.4z M66.8,45.4c0,0.9,0,1.8,0,2.7c0,0.2,0.2,0.4,0.2,0.7
		c0.1-0.2,0.3-0.4,0.3-0.7c0-1.1-0.2-2.2,1.2-2.7c0,0,0-0.1,0-0.2C67.9,45.4,67.3,45.4,66.8,45.4z M63.6,28.7
		c-0.1,0.6,0.3,0.8,0.9,0.8c0.5,0,1-0.1,1-0.8c0-0.6-0.2-0.9-0.8-0.9C64.1,27.8,63.6,27.9,63.6,28.7z"/>
	<path class="st0" d="M130.6,70.7c0-23.5,0-46.9,0-70.5c-43.6,0-87.1,0-130.6,0C0,0.1,0.1,0,0.1,0c0.2,0,0.5,0,0.7,0
		c43.3,0,86.6,0,130,0c0,0.4,0,0.7,0,1.1c0,22.9,0,45.9,0,68.8C130.8,70.2,130.7,70.4,130.6,70.7z"/>
	<path class="st1" d="M119.2,34.3c0,2-0.1,3.9,0,5.9c0.2,4.4-3.7,9.7-9.9,9.6c-5-0.1-9.2-4-9.4-9c-0.2-4.3-0.2-8.6,0-12.9
		c0.2-5,4.5-8.9,9.5-8.9c4.9,0,8.9,3.3,9.6,8.1c0.2,1.5,0.1,3.2,0.1,4.7C119.2,32.7,119.2,33.5,119.2,34.3z M101.8,34.3
		c0,1.8,0,3.6,0,5.4c0,0.6,0,1.2,0.1,1.8c0.8,4,4.3,6.7,8.4,6.3c3.9-0.4,6.9-3.8,6.9-7.8c0-3.7,0-7.4,0-11.1c0-0.5,0-1-0.1-1.5
		c-0.8-4-4.3-6.7-8.4-6.3c-3.9,0.3-6.9,3.7-6.9,7.8C101.8,30.6,101.8,32.5,101.8,34.3z"/>
	<path class="st2" d="M12.2,35.8c1.1,0.3,2.1,0.6,3.1,0.8c0.6,0.1,1.3-0.1,1.5-0.8c0.2-0.7-0.3-1.1-0.9-1.4c-0.7-0.3-1.3-0.6-2-0.9
		c-1.6-0.8-2.3-1.9-2-3.4c0.2-1.3,1.5-2.4,3.1-2.4c1.1,0,2.2,0.2,3.3,0.5c1,0.2,1,0.5,0.5,1.4c-0.1,0.2-0.3,0.4-0.4,0.6
		c-1-0.2-1.8-0.5-2.7-0.6c-0.6-0.1-1.2,0.1-1.4,0.8c-0.2,0.7,0.4,1,0.9,1.2c0.7,0.3,1.4,0.6,2.1,0.9c1.5,0.7,2.2,2,2,3.5
		c-0.2,1.4-1.2,2.3-2.9,2.6c-1.4,0.3-2.8,0-4.1-0.6c-0.9-0.4-1-0.7-0.5-1.5C11.9,36.2,12.1,36,12.2,35.8z"/>
	<path class="st3" d="M67.4,41.3c0.2-0.5,0.3-0.8,0.4-1.2c1.2,0.3,2.5,1,3.5,0c0.5-0.5,0.5-1.4,0.8-2.3c-0.9,0.3-1.4,0.5-2,0.6
		c-1.1,0.2-2-0.3-2.4-1.3c-0.7-1.5-0.8-3.1-0.2-4.6c0.8-2,2.6-2.4,4.6-1.2c0.1,0,0.1,0,0.2,0c0.4-0.1,0.8-0.5,1.1-0.4
		c0.6,0.2,0.2,0.8,0.1,1.2c-0.1,0.4-0.1,0.9-0.1,1.3c0,1.8,0,3.6-0.1,5.5c-0.1,2-1.3,3-3.2,2.9C69.2,41.7,68.3,41.5,67.4,41.3z
		 M71.9,34.4c0-0.4,0-0.8,0-1.2c0.1-0.7-0.3-1-0.8-1.2c-1-0.4-2,0-2.2,1.1c-0.2,0.9-0.2,1.9-0.1,2.9c0.1,1,0.7,1.4,1.6,1.3
		c0.9-0.1,1.4-0.7,1.5-1.6C71.9,35.2,71.9,34.8,71.9,34.4z"/>
	<path class="st3" d="M75.1,41.3c0.2-0.5,0.3-0.8,0.4-1.2c1.2,0.3,2.4,0.9,3.5,0c0.7-0.6,0.6-1.4,0.5-2.3c-2.8,1.3-4.3,0.5-4.6-2.6
		c-0.1-0.7,0-1.5,0.1-2.2c0.5-2,2.4-3.4,4.8-1.8c0.1-0.1,0.3-0.3,0.5-0.3c0.2-0.1,0.7-0.2,0.8-0.1c0.2,0.2,0.2,0.6,0.2,0.9
		c0,0.5-0.2,1-0.2,1.6c-0.1,1.8,0,3.6-0.1,5.5c-0.1,2.1-1.3,3.1-3.4,3C76.8,41.7,76.1,41.5,75.1,41.3z M79.6,34.4c0-0.4,0-0.8,0-1.2
		c0.1-0.7-0.3-1-0.8-1.2c-1-0.4-1.9,0-2.1,1c-0.2,0.9-0.2,2-0.1,2.9c0.1,1,0.7,1.4,1.6,1.3c0.9-0.1,1.4-0.7,1.4-1.6
		C79.6,35.2,79.6,34.8,79.6,34.4z"/>
	<path class="st4" d="M40.5,34.6c0,2.9-2,4.6-4.6,3.9c-1.8-0.5-2.7-2.3-2.4-4.8c0.2-1.9,1.5-3.1,3.2-3.1
		C39.1,30.4,40.5,31.9,40.5,34.6z M35.8,34.5c0.1,0.5,0.1,1.1,0.3,1.6c0.1,0.3,0.6,0.7,0.9,0.7c0.3,0,0.9-0.4,1-0.6
		c0.1-1.1,0.1-2.1,0-3.2c0-0.3-0.6-0.7-0.9-0.7c-0.3,0-0.8,0.4-0.9,0.7C35.8,33.4,35.9,34,35.8,34.5z"/>
	<path class="st1" d="M26.6,37.4c-1.3,1.1-2.7,1.6-4.2,1c-1.4-0.5-2-1.6-2.1-3c-0.1-0.7-0.1-1.5,0.1-2.3c0.4-2.2,2.9-3.3,4.9-2.3
		c0.3,0.2,0.6,0.4,0.9,0.7c0.5,0.6,0.7,1.4,0.3,2.1c-0.4,0.7-1.2,0.5-1.8,0.4c-0.1-0.4,0-0.8-0.2-1.1c-0.1-0.3-0.4-0.6-0.7-0.6
		c-0.3,0-0.8,0.2-0.8,0.4c-0.1,1.1-0.2,2.3,0,3.4c0.1,0.6,0.8,0.8,1.5,0.6c0.4-0.1,0.9-0.3,1.4-0.6C26,36.5,26.3,36.9,26.6,37.4z"/>
	<path class="st5" d="M50.1,38.2c-0.3,0.1-0.5,0.1-0.7,0.1c-2.2,0.3-2.8-0.2-2.8-2.4c0-2.9,0-5.9,0-8.8c1.7-0.5,2.2-0.1,2.2,1.5
		c0,2.3,0,4.5,0,6.8c0,0.7,0.1,1.3,1.2,1.1C50,37.2,50,37.7,50.1,38.2z"/>
	<path class="st6" d="M88.8,35.1c-1.5,0-2.9,0-4.3,0c-0.2,1.5,0.5,2.3,1.9,2.2c0.5-0.1,1-0.3,1.5-0.4c0.2,0,0.5,0.1,0.6,0.3
		c0.1,0.2,0,0.6-0.1,0.7c-1.2,0.7-2.5,1-3.8,0.5c-1.2-0.4-1.6-1.5-1.8-2.6c-0.1-0.8-0.1-1.6,0-2.4c0.3-1.8,1.7-2.9,3.3-2.7
		c1.7,0.2,2.7,1.4,2.7,3.3C88.9,34.3,88.8,34.6,88.8,35.1z M87.3,33.9c0.2-1.3-0.3-2.1-1.3-2.2c-1.1-0.1-1.7,0.6-1.7,2.2
		C85.3,33.9,86.3,33.9,87.3,33.9z"/>
	<path class="st7" d="M45.6,38.2c-0.5,0.1-0.7,0.1-0.9,0.2c-2.2,0.3-2.8-0.3-2.8-2.5c0-2.6,0-5.3,0-7.9c0-0.3-0.3-0.9,0.4-1
		c0.8-0.1,1.6,0.2,1.8,0.8c0.1,0.3,0.1,0.6,0.1,1c0,2.3,0,4.6,0,6.9c0,0.6,0.1,1,0.8,1.1C45.2,36.8,45.4,37.6,45.6,38.2z"/>
	<path class="st8" d="M54.9,38.4c-0.6,0-1,0-1.6,0c0-1.5,0-3,0-4.5c0-1.5,0-3,0-4.6c-0.7,0-1.2,0-1.8,0c-1.1,0-1.2-0.1-0.9-1.3
		c2.2,0,4.4,0,6.6,0c0.1,0,0.4,0.4,0.4,0.5c-0.1,0.3-0.3,0.7-0.6,0.7c-0.7,0.1-1.4,0.1-2.2,0.1C54.9,32.2,54.9,35.3,54.9,38.4z"/>
	<path class="st9" d="M30.1,31.8c0.6-1.2,1.6-1.3,2.9-1c-0.2,0.7-0.3,1.4-0.5,2.1c-0.4,0-0.7-0.1-1,0c-0.7,0.1-1.2,0.4-1.2,1.2
		c0,1.4,0,2.9,0,4.4c-0.8,0-1.5,0-2.3,0c0-1.6,0-3.2,0-4.7c0-0.5-0.3-1.1-0.3-1.6c0-0.4,0-0.9,0.2-1.1c0.1-0.2,0.7-0.2,1-0.1
		C29.3,31,29.7,31.4,30.1,31.8z"/>
	<path class="st10" d="M92.3,38.4c-0.6,0-1,0-1.5,0c0-1.7,0-3.4,0-5c0-0.5-0.3-1.1-0.3-1.6c0-0.3,0-0.7,0.2-0.9
		c0.1-0.1,0.6-0.1,0.7,0.1c0.3,0.2,0.5,0.6,0.8,0.9c0.6-1,1.5-1.4,2.7-1.1c-0.1,0.7,0.1,1.4-1,1.4c-0.9-0.1-1.6,0.7-1.6,1.7
		C92.3,35.3,92.3,36.8,92.3,38.4z"/>
	<path class="st11" d="M62.3,30.8c0,0.8,0,1.4-1.1,1.4c-0.9-0.1-1.5,0.8-1.5,1.7c0,1.5,0,2.9,0,4.5c-0.5,0-0.9,0-1.5,0.1
		c0-1,0.1-1.9,0-2.9c-0.1-1.4,0.4-2.8-0.4-4.1c-0.1-0.1,0.1-0.5,0.3-0.7c0.1-0.1,0.5-0.1,0.6,0c0.4,0.2,0.6,0.6,1,0.9
		C60.2,30.9,61.1,30.4,62.3,30.8z"/>
	<path class="st12" d="M65.5,38.4c-0.5,0-0.9,0-1.5,0c0-1.8,0-3.6,0-5.3c0-0.5,0.1-1.1-0.7-1.2c0,0-0.1-0.9,0.1-1
		c0.8-0.5,2,0.1,2,1.1C65.6,34,65.5,36.1,65.5,38.4z"/>
	<path class="st13" d="M65.1,47c-0.6-0.1-0.9-0.2-1.2-0.3c0-0.1,0-0.2,0-0.3c0.5,0,1,0,1.5-0.1c0,0.7,0,1.3,0,1.9
		c0,0.2-0.1,0.4-0.2,0.4c-1,0.7-3,0.2-3.2-1c-0.2-0.8-0.2-1.7,0-2.6c0.1-0.8,0.8-1.3,1.6-1.4c0.7-0.1,1.4,0,1.8,0.6
		c0,0.1-0.1,0.2-0.1,0.3c-0.2-0.1-0.5-0.1-0.7-0.2c-1.2-0.5-2.1,0-2.2,1.3c-0.1,0.5,0,1,0,1.5c0.2,1,1.2,1.6,2.1,1.1
		C64.9,48.2,65,47.5,65.1,47z"/>
	<path class="st14" d="M80.6,48.1c0.5,0.1,1.1,0.4,1.6,0.3c0.3,0,0.8-0.3,1-0.7c0.1-0.2-0.3-0.7-0.5-0.9c-0.3-0.3-0.8-0.4-1.2-0.6
		c-0.5-0.3-0.9-0.7-0.8-1.3c0.1-0.7,0.6-1.1,1.3-1.1c0.6,0,1.2,0.1,1.8,0.2c0,0.1,0,0.2,0,0.3c-0.2,0.1-0.3,0.2-0.4,0.2
		c-0.3,0-0.7-0.2-0.9-0.2c-0.4,0.1-0.7,0.4-1.1,0.6c0.2,0.3,0.4,0.7,0.7,1c0.3,0.3,0.7,0.3,1.1,0.5c0.6,0.3,0.9,0.8,0.8,1.5
		c-0.1,0.7-0.6,1-1.2,1c-0.6,0-1.2-0.1-1.7-0.2c-0.2,0-0.3-0.3-0.4-0.5C80.4,48.2,80.5,48.1,80.6,48.1z"/>
	<path class="st15" d="M53.7,43.5c0.1,0.6,0.1,1.3,0.2,1.9c0.2,0,0.3-0.1,0.5-0.1c0.8-0.2,1.3,0.1,1.6,0.9c0.6,1.8-0.4,3.1-2.1,2.7
		c-0.2,0-0.5-0.2-0.5-0.4c0-1.6,0-3.3,0-5C53.4,43.5,53.6,43.5,53.7,43.5z M53.8,48.6c0.6-0.2,1.3-0.2,1.4-0.5
		c0.2-0.6,0.3-1.3,0.2-1.9c0-0.2-0.6-0.6-0.8-0.5c-0.3,0.1-0.7,0.5-0.7,0.8C53.7,47.1,53.8,47.7,53.8,48.6z"/>
	<path class="st16" d="M94.6,45.4c-0.3,0.5-0.6,0.9-0.9,1.3c0.4,0.7,0.8,1.4,1.2,2.1c-0.9,0.1-0.8-0.5-1-0.9
		c-0.2-0.5-0.5-0.8-1.1-0.6c-0.1,0.5-0.1,1-0.2,1.5c-0.1,0-0.2,0-0.3,0c0-1.8,0-3.5,0-5.3c0.7,1,0.2,2.1,0.5,3.3
		c0.6-0.6,1.1-1.2,1.5-1.7C94.4,45.2,94.5,45.3,94.6,45.4z"/>
	<path class="st15" d="M56.6,50.2c0.2,0,0.4-0.1,0.6-0.1c0.7-0.1,0.9-0.7,0.6-1.3c-0.4-1.1-0.8-2.2-1.1-3.3c0.6,0,0.6,0,1,1.2
		c0.2,0.6,0.4,1.1,0.6,1.7c0.6-1,0.5-2.2,1.1-3.1c0.1,0.1,0.3,0.1,0.4,0.2c-0.5,1.5-1,3.1-1.6,4.6c-0.3,0.7-1,0.5-1.5,0.5
		C56.6,50.3,56.6,50.2,56.6,50.2z"/>
	<path class="st17" d="M71.8,47.3c-0.7,0-1.4,0-2.2,0c0.1,1.7,1.2,1.2,2.2,1.1c-0.6,0.7-1.3,0.8-2,0.5c-0.8-0.4-0.8-1.2-0.8-2
		c0-0.7,0.3-1.3,1-1.6C70.9,44.9,72.2,45.5,71.8,47.3z M71.3,46.8c0-0.7-0.1-1.2-0.8-1.2c-0.7,0-0.9,0.5-0.9,1.2
		C70.2,46.8,70.7,46.8,71.3,46.8z"/>
	<path class="st17" d="M75.5,47.2c-0.7,0-1.4,0-2.1,0c0.1,1.1,0.1,1.1,2.1,1.1c0,0.1,0.1,0.2,0.1,0.2c-0.4,0.1-0.9,0.4-1.3,0.3
		c-0.5-0.1-1-0.4-1.2-0.8c-0.2-0.3-0.2-0.9-0.2-1.3c0-1.1,0.7-1.7,1.6-1.6C75.3,45.3,75.7,45.9,75.5,47.2z M75,46.8
		c0-0.6-0.1-1.1-0.8-1.2c-0.8-0.1-0.9,0.5-1,1.2C73.9,46.8,74.4,46.8,75,46.8z"/>
	<path class="st17" d="M87.6,47.1c0,1.2-0.6,1.9-1.5,1.9c-1,0-1.5-0.7-1.5-2c0-1.1,0.6-1.8,1.5-1.8C87,45.2,87.6,45.9,87.6,47.1z
		 M87.1,47.1c-0.2-0.4-0.2-1-0.5-1.2c-0.2-0.2-0.9-0.2-1.1,0c-0.6,0.4-0.6,2,0,2.4c0.3,0.2,0.9,0.2,1.1,0C86.9,48,87,47.5,87.1,47.1
		z"/>
	<path class="st18" d="M79.1,48.9c-0.1-0.2-0.2-0.4-0.2-0.6c0-0.6,0-1.2,0-1.8c0-0.3-0.3-0.8-0.5-0.8c-0.5,0-1.1,0.1-1.1,0.8
		c0,0.6,0,1.3,0,1.9c0,0.1-0.1,0.3-0.4,0.4c0-1.2,0-2.3,0-3.4c0.4,0,0.7-0.1,1-0.1c1.1-0.3,1.5,0.1,1.5,1.1c0,0.8,0,1.6,0,2.4
		C79.3,48.8,79.2,48.9,79.1,48.9z"/>
	<path class="st19" d="M91,48.4c-0.5,0.5-1.1,0.8-1.7,0.4c-0.4-0.2-0.7-0.9-0.9-1.4c-0.1-0.4-0.1-0.8,0-1.2c0.2-1,1.6-1.5,2.3-0.8
		c0.3,0.3,0.6,0.7,0,1.1c-0.1-0.2-0.1-0.4-0.2-0.5c-0.3-0.6-1.1-0.7-1.3-0.1c-0.2,0.6-0.2,1.3,0,1.9c0,0.2,0.7,0.3,1.1,0.4
		c0.2,0,0.5-0.2,0.7-0.2C91,48.2,91,48.3,91,48.4z"/>
	<path class="st16" d="M66.8,45.4c0.5,0,1.1-0.1,1.7-0.1c0,0.1,0,0.2,0,0.2c-1.4,0.4-1.2,1.6-1.2,2.7c0,0.2-0.2,0.4-0.3,0.7
		c-0.1-0.2-0.2-0.4-0.2-0.7C66.8,47.2,66.8,46.3,66.8,45.4z"/>
	<path class="st11" d="M63.6,28.7c0-0.8,0.5-0.9,1.1-0.9c0.7,0,0.9,0.3,0.8,0.9c0,0.7-0.5,0.8-1,0.8C63.9,29.6,63.5,29.3,63.6,28.7z
		"/>
	<path class="st20" d="M101.8,34.3c0-1.9,0-3.7,0-5.6c0-4.1,3-7.5,6.9-7.8c4.1-0.4,7.6,2.3,8.4,6.3c0.1,0.5,0.1,1,0.1,1.5
		c0,3.7,0,7.4,0,11.1c0,4.1-3,7.5-6.9,7.8c-4,0.4-7.6-2.3-8.4-6.3c-0.1-0.6-0.1-1.2-0.1-1.8C101.8,37.9,101.8,36.1,101.8,34.3z
		 M108.4,28.2c0,0.6,0,1.1,0,1.7c0,0.7,0.3,1.2,1.1,1.2c0.8,0,1.2-0.4,1.2-1.1c0-1.2,0-2.4,0-3.6c0-0.7-0.4-1.2-1.2-1.1
		c-0.7,0-1,0.5-1.1,1.1C108.4,27,108.4,27.6,108.4,28.2z"/>
	<path class="st21" d="M71.9,34.4c0,0.4,0,0.8,0,1.1c0,0.9-0.5,1.5-1.5,1.6c-0.8,0.1-1.4-0.3-1.6-1.3c-0.1-0.9-0.1-1.9,0.1-2.9
		c0.2-1.1,1.2-1.5,2.2-1.1c0.5,0.2,0.9,0.5,0.8,1.2C71.8,33.6,71.9,34,71.9,34.4z"/>
	<path class="st21" d="M79.6,34.4c0,0.4,0,0.8,0,1.1c0,0.9-0.5,1.5-1.4,1.6c-0.8,0.1-1.5-0.3-1.6-1.3c-0.1-1-0.1-2,0.1-2.9
		c0.2-1,1.2-1.4,2.1-1c0.5,0.2,0.9,0.5,0.8,1.2C79.6,33.6,79.6,34,79.6,34.4z"/>
	<path class="st22" d="M35.8,34.5c0.1-0.5,0.1-1.1,0.3-1.6c0.1-0.3,0.6-0.7,0.9-0.7c0.3,0,0.9,0.4,0.9,0.7c0.1,1.1,0.1,2.1,0,3.2
		c0,0.3-0.6,0.6-1,0.6c-0.3,0-0.7-0.4-0.9-0.7C35.8,35.6,35.9,35.1,35.8,34.5z"/>
	<path class="st23" d="M87.3,33.9c-1,0-2,0-3,0c0-1.5,0.6-2.3,1.7-2.2C87,31.8,87.5,32.6,87.3,33.9z"/>
	<path class="st22" d="M53.8,48.6c0-0.9-0.1-1.5,0-2.1c0.1-0.3,0.4-0.7,0.7-0.8c0.2-0.1,0.8,0.3,0.8,0.5c0,0.6,0,1.3-0.2,1.9
		C55.1,48.4,54.4,48.4,53.8,48.6z"/>
	<path class="st24" d="M71.3,46.8c-0.6,0-1.1,0-1.7,0c0-0.7,0.2-1.2,0.9-1.2C71.2,45.6,71.4,46.1,71.3,46.8z"/>
	<path class="st24" d="M75,46.8c-0.6,0-1.1,0-1.7,0c0.1-0.7,0.2-1.2,1-1.2C75,45.7,75.1,46.2,75,46.8z"/>
	<path class="st25" d="M87.1,47.1c-0.2,0.4-0.2,0.9-0.5,1.1c-0.3,0.2-0.9,0.2-1.1,0c-0.6-0.4-0.6-2,0-2.4c0.3-0.2,0.9-0.2,1.1,0
		C86.9,46.1,87,46.7,87.1,47.1z"/>
	<path class="st26" d="M108.4,28.2c0-0.6,0-1.2,0-1.8c0-0.7,0.4-1.1,1.1-1.1c0.7,0,1.2,0.4,1.2,1.1c0,1.2,0,2.4,0,3.6
		c0,0.7-0.4,1.2-1.2,1.1c-0.7,0-1.1-0.5-1.1-1.2C108.4,29.3,108.4,28.7,108.4,28.2z"/>
</g>
</svg>
