<?xml version="1.0" encoding="utf-8"?>
<!-- Generator: Adobe Illustrator 24.0.0, SVG Export Plug-In . SVG Version: 6.00 Build 0)  -->
<svg version="1.1" id="Layer_1" xmlns="http://www.w3.org/2000/svg" xmlns:xlink="http://www.w3.org/1999/xlink" x="0px" y="0px"
	 viewBox="0 0 1200 394" style="enable-background:new 0 0 1200 394;" xml:space="preserve">
<style type="text/css">
	.st0{fill:none;stroke:#222222;stroke-width:4;stroke-linecap:round;stroke-linejoin:round;stroke-miterlimit:10;}
</style>
<path class="st0" d="M40,103.49c0,0,36-65,123-21s116,75,156,39s-97-74-94-48s333-5,356-3s24,6,13,8s-232-23-274,2c0,0-21,1-23,71
	s27,105,46,99s39-30,49-76s18-110,14-115s-11-18-12,6s0,179,0,179s25-55,45-54s13,10,14,22s6,46,42,39s35-38,31-59s-75,43-34,55
	s36-57,36-57s-6,70,11,59s27-29,23-57v54c0,0,1-34,18-47s23-10,23,10s2,54,14,33s29-63,29-73s7-89,4-95s-11-41-15,1s-1,172-1,172
	s35-69,66-64s-58,17-59,35s29,44,66,43s73-3,75-31s5-41-2-41s-7,48,7,58s34-7,38-27s8-37,2-32s9,81,3,124s-17,49-25,45s-17-3-5-39
	c7.16-21.48,29.62-78.55,53.59-109.63c16.2-21.01,33.1-30.15,46.41-8.37c33,54-53,67-46,16c0,0,1-23,12-15c0,0,41,33,61,9
	c0,0,19-28,7-20c0,0-12,4-7,27s19,60,49,2c0,0,2-39,0-26s-11,66,32,57s46-29,88-12s64-9,64-9s30-5.49,26-60.49h-65c0,0-2,56,15,54
	c0,0,84,5,50,52"/>
</svg>
