<?xml version="1.0" encoding="utf-8"?>
<!-- Generator: Adobe Illustrator 24.0.2, SVG Export Plug-In . SVG Version: 6.00 Build 0)  -->
<svg version="1.1" id="레이어_1" xmlns="http://www.w3.org/2000/svg" xmlns:xlink="http://www.w3.org/1999/xlink" x="0px"
	 y="0px" viewBox="0 0 240 29.87" enable-background="new 0 0 240 29.87" xml:space="preserve">
<g>
	<path fill="#FBCCCD" d="M4.95,5.25v1.34C3.82,6.96,3.46,7.58,3.46,8.64H4.9v2.96H1.75V8.66C1.66,6.91,3.08,5.5,4.95,5.25z
		 M9.4,5.25v1.34C8.28,6.96,7.92,7.58,7.92,8.64h1.44v2.96H6.21V8.66C6.12,6.96,7.51,5.5,9.4,5.25z"/>
	<path fill="#FBCCCD" d="M13.54,16.78l-1.17-2.11c4.61-1.03,7.13-3.08,7.56-5.53h-6.57V7.02h9.81
		C23.17,11.98,19.68,15.34,13.54,16.78z M28.91,24.37H15.48v-7.29h13.44V24.37z M25.99,19.19h-7.61v3.1h7.61V19.19z M28.91,16.33
		h-2.97V5.94h2.97v4.05h2.75v2.19h-2.75V16.33z"/>
	<path fill="#FBCCCD" d="M39.69,12.69c-0.92,1.94-2.57,3.4-5.02,4.15l-1.55-2.15c3.53-1.03,5-3.52,5-6.11V6.91h3.02v1.54
		c0,2.51,1.33,4.76,4.64,5.73l-1.55,2.11C42.03,15.62,40.56,14.39,39.69,12.69z M50.72,20.99c0,2.27-2.7,3.6-7.09,3.6
		c-4.41,0-7.11-1.34-7.11-3.6c0-2.33,2.7-3.64,7.11-3.64C48.01,17.34,50.72,18.66,50.72,20.99z M47.74,20.99
		c0-1.05-1.37-1.58-4.12-1.58c-2.77,0-4.14,0.53-4.14,1.58c0,1.03,1.37,1.56,4.14,1.56C46.37,22.55,47.74,22.02,47.74,20.99z
		 M43.87,9.34h3.78v-3.4h2.97v10.93h-2.97v-5.37h-3.78V9.34z"/>
	<path fill="#FBCCCD" d="M60.34,12.87c-0.92,1.86-2.52,3.32-4.95,4.03l-1.51-2.11c3.35-1.03,4.82-3.36,4.88-5.69h-4.07V6.98h11.14
		V9.1H61.8c0.07,2.13,1.49,4.37,4.68,5.35l-1.44,2.09C62.77,15.87,61.22,14.57,60.34,12.87z M71.33,24.61h-2.97v-4.62H57.19v-2.13
		h14.13V24.61z M68.35,17.04v-4.5h-3.06V10.4h3.06V5.96h2.97v11.08H68.35z"/>
	<path fill="#FBCCCD" d="M80.64,16.59c-3.17,0-5.65-2-5.65-4.72c0-2.75,2.48-4.74,5.65-4.74c3.17,0,5.63,1.98,5.63,4.74
		C86.26,14.59,83.81,16.59,80.64,16.59z M80.64,14.29c1.55,0,2.72-0.87,2.72-2.41s-1.17-2.43-2.72-2.43c-1.53,0-2.75,0.89-2.75,2.43
		S79.11,14.29,80.64,14.29z M78.12,24.27v-6.24h2.97v4.11h11.34v2.13H78.12z M88.92,5.96h2.99v13.38h-2.99V5.96z"/>
	<path fill="#FBCCCD" d="M101.51,20.16V7.62h9.97v12.53H101.51z M108.56,18.05V9.73h-4.12v8.32H108.56z M114.7,24.63V5.94h2.97
		v18.69H114.7z"/>
	<path fill="#FBCCCD" d="M133.94,16.9l0.31,2.23c-3.53,0.67-6.95,0.87-10.13,0.87h-1.85V7.7h2.95v10
		C127.95,17.65,130.86,17.44,133.94,16.9z M135.54,24.57V5.92h2.97v18.65H135.54z"/>
	<path fill="#FBCCCD" d="M142.76,6.79h9.81v2.85h3.69V5.94h2.97v9.33h-2.97v-3.52h-3.69v2.94h-9.81V6.79z M145.59,24.37v-5.16h10.69
		v-1.09h-10.74v-2.04h13.68v5.06h-10.71v1.17h11.3v2.07H145.59z M145.68,12.6h3.98V8.9h-3.98V12.6z"/>
	<path fill="#FBCCCD" d="M167.71,22.49V20.3h7.88v-3.89h-5.69V7.22h14.43v2.15h-11.43v4.9h11.59v2.15h-5.92v3.89h7.92v2.19H167.71z"
		/>
	<path fill="#FBCCCD" d="M201.06,18.52l-1.64,2.11c-2.34-0.95-3.92-2.81-4.84-5.02c-0.92,2.45-2.59,4.46-4.95,5.49l-1.67-2.13
		c3.4-1.4,5.09-4.92,5.09-8V9.93h-4.3V7.72h11.39v2.21h-4.12v1.03C196.02,13.8,197.66,17.12,201.06,18.52z M204.64,24.59h-2.97V5.94
		h2.97v7.11h3.02v2.21h-3.02V24.59z"/>
	<path fill="#FBCCCD" d="M210.71,21.43l-1.55-2.11c5.29-2.27,7.58-5.2,8.01-9.33h-6.91V7.87h9.95
		C220.2,13.56,218.07,18.25,210.71,21.43z M223.38,24.57V5.92h2.99v18.65H223.38z"/>
	<path fill="#FBCCCD" d="M230.6,11.57v-1.34c1.1-0.36,1.49-1.01,1.49-2.04h-1.44V5.23h3.15v2.94
		C233.88,9.89,232.51,11.33,230.6,11.57z M235.05,11.57v-1.34c1.1-0.36,1.49-1.01,1.49-2.04h-1.44V5.23h3.15v2.94
		C238.34,9.93,236.94,11.31,235.05,11.57z"/>
</g>
</svg>
