<?xml version="1.0" encoding="utf-8"?>
<!-- Generator: Adobe Illustrator 24.0.2, SVG Export Plug-In . SVG Version: 6.00 Build 0)  -->
<svg version="1.1" id="레이어_1" xmlns="http://www.w3.org/2000/svg" xmlns:xlink="http://www.w3.org/1999/xlink" x="0px"
	 y="0px" viewBox="0 0 500 500" style="enable-background:new 0 0 500 500;" xml:space="preserve">
<style type="text/css">
	.st0{fill:#F7C9CA;}
</style>
<path class="st0" d="M267,193.71c30.19,2.01,114.21-75.97,169.35-130.82c-49.67,5.38-106.39,8.31-166.81,8.31
	c-10.15,0-20.2-0.09-30.14-0.26C236.63,123.58,238.57,191.81,267,193.71z"/>
<path class="st0" d="M97.41,359.9c14.38,13.48,30.1,25.12,46.89,34.58c0,0-20.72,8.29-20.72,28.13s20.72,28.13,20.72,28.13v0.3H221
	c10.49-13.98,21.18-29.07,29-42.09C265.9,382.48,156.9,366.54,97.41,359.9z"/>
<path class="st0" d="M143.13,245.89c0-53.33-4.53-124.51-8.84-180.1c-30.43-2.55-58.74-5.93-84.23-10.02
	c-1.23-0.69-2.54-1.36-3.75-2.05c-9.18-1.48-17.76-2.96-26.05-4.74c-8.29,28.72-13.32,59.51-13.32,91.48
	c0,73.12,23.99,139.6,63.26,189.67C110.9,310.59,143.13,283.3,143.13,245.89z"/>
<path class="st0" d="M481.86,225.29c-75.13,23.78-194.15,64.35-220.89,90.48c-26.82,26.21,40.14,93.92,86.62,135.25h7.81v-0.14
	c1.65-0.7,20.41-9.02,20.41-27.99s-18.76-27.29-20.41-27.99v-0.27C415.26,361.04,461.58,299.9,481.86,225.29z"/>
<path class="st0" d="M202.61,377.14c32.36,8.1,55.29,18.65,47.39,31.79c-7.82,13.01-18.52,28.11-29,42.09h126.59
	c-45.13-40.14-109.57-105.14-88.7-132.87l-29.05-9.35C229.84,308.81,217.35,340.59,202.61,377.14z"/>
<path class="st0" d="M241.21,149.44c-3.4-23.56-3.16-52.88-1.81-78.5c-36.95-0.63-72.27-2.4-105.11-5.15
	c1.55,20.05,3.13,42.12,4.52,64.66l60.06,77.72L241.21,149.44z"/>
<path class="st0" d="M142.65,253.6c-4.09,33.48-34.6,58.36-72.45,76.52c8.4,10.71,17.5,20.66,27.21,29.77
	c12.98,1.45,28.32,3.34,44.21,5.69l40.73-76.91L142.65,253.6z"/>
<path class="st0" d="M493.06,140.46c0-29.61-4.15-58.32-11.25-84.97c-7.4,0.89-14.8,2.07-22.5,2.96c-1.41,0.83-2.8,1.45-4.21,2.25
	c-6.12,0.77-12.39,1.49-18.75,2.18c-34.62,34.44-80.62,77.99-117.53,105.14L272.68,250l50.89,31.61
	c47.91-20.26,111.58-41.53,158.29-56.32C489.14,198.53,493.06,170.04,493.06,140.46z"/>
<path class="st0" d="M318.82,168.03c-21.89,16.1-40.58,26.43-51.82,25.68c-14.59-0.97-22.21-19.42-25.79-44.27l-42.34,58.72
	l-60.06-77.72c2.46,39.95,4.31,81.35,4.31,115.44c0,2.62-0.17,5.19-0.48,7.72l39.71,35.08l-40.73,76.91
	c20.75,3.07,42.42,6.91,60.99,11.56c14.74-36.56,27.23-68.34,27.23-68.34l29.05,9.35c0.62-0.83,1.31-1.62,2.09-2.38
	c10.12-9.89,33.44-21.84,62.6-34.17L272.68,250L318.82,168.03z"/>
</svg>
