<?xml version="1.0" encoding="utf-8"?>
<!-- Generator: Adobe Illustrator 24.0.2, SVG Export Plug-In . SVG Version: 6.00 Build 0)  -->
<svg version="1.1" id="레이어_1" xmlns="http://www.w3.org/2000/svg" xmlns:xlink="http://www.w3.org/1999/xlink" x="0px"
	 y="0px" viewBox="0 0 100 100" style="enable-background:new 0 0 100 100;" xml:space="preserve">
<style type="text/css">
	.st0{fill:none;stroke:#212222;stroke-width:3.1689;stroke-linecap:round;stroke-linejoin:round;stroke-miterlimit:10;}
</style>
<g>
	<g>
		<path class="st0" d="M61.58,67.64c0,0,1.8-0.72,1.8-2.48c0-1.72-1.77-2.46-1.8-2.47c7.14-4.01,12.07-12.47,12.07-22.29
			c0-2.6-0.36-5.11-1-7.47c-0.65,0.08-1.31,0.17-1.99,0.27c-4.81,0.61-10.51,0.97-16.64,0.97c-7.43,0-14.25-0.52-19.6-1.39
			c0,0,0,0,0,0c-0.8-0.13-1.55-0.27-2.28-0.41c-0.74,2.52-1.16,5.22-1.16,8.04c0,9.82,4.93,18.28,12.06,22.29h-0.02
			c0,0-1.8,0.74-1.8,2.48c0,1.75,1.8,2.48,1.8,2.48h18.53"/>
		<path class="st0" d="M61.56,62.7c0,0,0.01,0,0.01-0.01"/>
	</g>
	<g>
		<path d="M70.9,8.66c-1.61-1.34-3.13-2.61-4.44-3.79c-8.03-7.18-45.16,6.4-49.37,7.97l1.05,2.81C33.38,9.96,59.43,2.6,64.46,7.11
			c1.35,1.21,2.89,2.49,4.52,3.85c5.11,4.26,12.1,10.1,11.91,13.27c-0.02,0.37-0.16,0.93-1.09,1.53c-1.2,0.78-2.39,1.01-3.65,0.69
			c-3.44-0.85-6.23-5.29-6.79-6.21c-0.47-1.91-1.6-3.44-3.34-4.55c-6.12-3.88-18.25-1.11-18.76-0.99l0.68,2.92
			c3.16-0.73,12.28-2.06,16.48,0.61c1.07,0.68,1.72,1.57,2.01,2.71l1.12,1.68c-0.02,0.01-0.08,0.05-0.17,0.11
			c1.3,1.95,4.24,5.7,8.04,6.65c0.61,0.15,1.22,0.23,1.82,0.23c1.44,0,2.85-0.44,4.2-1.32c1.9-1.24,2.38-2.79,2.45-3.87
			C84.16,19.73,77.41,14.1,70.9,8.66z"/>
		<path d="M66.48,21.12c-0.01-0.06-0.04-0.12-0.06-0.18V19.7c0.55-0.42-4.26,2.75-13.14,2.55c-0.37-0.03-0.72,0.12-1,0.35
			c-0.39,0.33-9.77,8.01-20.21-1.16c-0.4-0.35-0.96-0.47-1.47-0.29c-5.36,1.82-8.74,3.09-10.86,4.02l0.66,3
			c2.29-1.01,6.48-2.57,10.37-3.91c10.7,8.78,20.71,2.62,22.98,1c8.7,0.12,12.8-2.03,13.64-2.54c-0.44-0.66-0.7-1.12-0.74-1.19
			C66.56,21.41,66.51,21.27,66.48,21.12z"/>
		<path d="M66.42,20.94c0.02,0.06,0.04,0.12,0.06,0.18c0.03,0.14,0.08,0.28,0.15,0.41c0.04,0.07,0.29,0.53,0.74,1.19
			c0.09-0.05,0.15-0.1,0.17-0.11L66.42,20.94z"/>
	</g>
	<g>
		<path d="M35.54,92.89c-1.35-1.21-2.89-2.5-4.52-3.85c-5.1-4.26-12.1-10.1-11.91-13.27c0.02-0.37,0.16-0.93,1.09-1.53
			c1.2-0.78,2.39-1,3.65-0.69c3.44,0.85,6.23,5.29,6.79,6.21c0.47,1.91,1.6,3.44,3.35,4.55c6.12,3.88,18.25,1.11,18.76,0.99
			l-0.68-2.92c-3.16,0.73-12.28,2.05-16.48-0.61c-1.07-0.68-1.72-1.57-2.02-2.71l-1.12-1.67c0.02-0.01,0.08-0.05,0.17-0.11
			c-1.3-1.95-4.24-5.7-8.04-6.65c-2.08-0.52-4.11-0.15-6.02,1.09c-1.9,1.24-2.38,2.79-2.45,3.87c-0.28,4.69,6.46,10.31,12.98,15.75
			c1.61,1.34,3.13,2.61,4.44,3.79c1.66,1.49,4.56,2.08,8.16,2.08c13.81,0,37.87-8.8,41.21-10.05l-1.05-2.81
			C66.62,90.04,40.57,97.39,35.54,92.89z"/>
		<path d="M33.52,78.88c0.01,0.06,0.04,0.12,0.06,0.18v1.48c0.04-0.02,4.26-3.01,13.14-2.79c0.37,0,0.72-0.12,1-0.35
			c0.39-0.33,9.77-8.01,20.21,1.16c0.4,0.35,0.96,0.46,1.47,0.29c6.81-2.31,10.41-3.73,12.32-4.71l-1.47-2.6
			c-2.06,0.97-6.73,2.73-11.01,4.2c-10.69-8.78-20.71-2.62-22.98-0.99c-0.23,0-0.45,0-0.67,0c-8.21,0-12.14,2.05-12.97,2.54
			c0.44,0.66,0.7,1.12,0.74,1.19C33.44,78.59,33.49,78.73,33.52,78.88z"/>
		<path d="M33.58,79.06c-0.02-0.06-0.04-0.12-0.06-0.18c-0.03-0.14-0.08-0.28-0.15-0.41c-0.04-0.07-0.29-0.52-0.74-1.19
			c-0.09,0.05-0.16,0.09-0.17,0.11L33.58,79.06z"/>
		<path d="M80.26,71.54c0.01,0,0.01-0.01,0.02-0.01"/>
		<path d="M81.75,74.13c0,0-0.01,0-0.01,0.01"/>
		<path d="M81.75,74.13c-0.49-0.88-0.99-1.76-1.47-2.6c0,0-0.01,0.01-0.02,0.01l1.47,2.6C81.74,74.14,81.74,74.14,81.75,74.13z"/>
	</g>
</g>
</svg>
