<?xml version="1.0" encoding="utf-8"?>
<!-- Generator: Adobe Illustrator 24.0.2, SVG Export Plug-In . SVG Version: 6.00 Build 0)  -->
<svg version="1.1" id="레이어_1" xmlns="http://www.w3.org/2000/svg" xmlns:xlink="http://www.w3.org/1999/xlink" x="0px"
	 y="0px" viewBox="0 0 100 100" style="enable-background:new 0 0 100 100;" xml:space="preserve">
<style type="text/css">
	.st0{fill:none;stroke:#212222;stroke-width:3.1689;stroke-linecap:round;stroke-linejoin:round;stroke-miterlimit:10;}
</style>
<g>
	<path class="st0" d="M69.96,88.03c0,0,3.89-1.56,3.89-5.34c0-3.7-3.81-5.3-3.88-5.33C85.36,68.72,96,50.47,96,29.3
		c0-5.61-0.77-11.01-2.15-16.1c-1.41,0.18-2.82,0.37-4.29,0.58c-10.37,1.32-22.66,2.09-35.88,2.09c-16.02,0-30.72-1.13-42.25-3
		c0,0-0.01,0-0.01-0.01c-1.72-0.28-3.34-0.58-4.91-0.89C4.92,17.4,4,23.23,4,29.3c0,21.17,10.64,39.41,26.01,48.05h-0.04
		c0,0-3.89,1.59-3.89,5.34c0,3.77,3.89,5.34,3.89,5.34h39.96"/>
	<path class="st0" d="M69.93,77.39c0.01-0.01,0.02-0.01,0.03-0.02"/>
</g>
<polyline class="st0" points="24.01,36.44 42.66,60.36 75.99,27.54 "/>
</svg>
