<?xml version="1.0" encoding="utf-8"?>
<!-- Generator: Adobe Illustrator 24.0.0, SVG Export Plug-In . SVG Version: 6.00 Build 0)  -->
<svg version="1.1" id="Layer_1" xmlns="http://www.w3.org/2000/svg" xmlns:xlink="http://www.w3.org/1999/xlink" x="0px" y="0px"
	 viewBox="0 0 424 197" style="enable-background:new 0 0 424 197;" xml:space="preserve">
<style type="text/css">
	.st0{fill:none;stroke:#222222;stroke-width:4;stroke-linecap:round;stroke-linejoin:round;stroke-miterlimit:10;}
</style>
<path class="st0" d="M31.73,35.82c0,0,55.38-60.7,67.09-11.71S62.61,174.26,33.86,165.74s5.32-38.34,22.36-44.73
	s50.05-5.32,62.83-45.79c0,0-18.1,106.5,40.47,1.06c0,0-25.56,101.17,38.34,17.04c0,0,9.58-37.27,7.45-25.56
	c-2.13,11.71-21.3,64.96-9.58,46.86s44.73-64.96,41.53-28.75c-3.19,36.21,8.52,48.99,35.14,3.19s55.38-11.71,42.6,9.58
	c-12.78,21.3-59.64,57.51-39.4-5.32s45.79-4.26,45.79,2.13s3.19-24.49,3.19-20.23c0,4.26-23.43,150.16-50.05,109.69
	S401.27,76.29,401.27,76.29"/>
</svg>
