<?xml version="1.0" encoding="utf-8"?>
<!-- Generator: Adobe Illustrator 24.0.0, SVG Export Plug-In . SVG Version: 6.00 Build 0)  -->
<svg version="1.1" id="Layer_1" xmlns="http://www.w3.org/2000/svg" xmlns:xlink="http://www.w3.org/1999/xlink" x="0px" y="0px"
	 viewBox="0 0 424 197" style="enable-background:new 0 0 424 197;" xml:space="preserve">
<style type="text/css">
	.st0{fill:none;stroke:#222222;stroke-width:0.75;stroke-linecap:round;stroke-linejoin:round;stroke-miterlimit:10;}
</style>
<path class="st0" d="M4.5,127.58c0,0,73.93-38.44,88.72-86.75l-38.44,82.8c0,0,40.42-92.66,56.19-63.09
	c6.24,11.71,1.83,26.19-6.15,38.63c-12.18,18.98-32.66,33.19-36.24,25.44c-5.91-12.81,9.86-29.57,51.26-27.6l-4.93,5.91l7.89-4.93
	c0,0-24.64,41.4,8.87,1.97c0,0-18.73,32.53,20.7-4.93l34.5-0.99l-33.52-0.99c0,0,0,22.67-7.89,24.64s-7.89-5.91,0.99-3.94
	s41.4-35.49,32.53-31.54s-27.6,39.43-10.84,33.52s31.54-21.69,30.56-23.66s-12.81,15.77-9.86,21.69s30.56-19.71,30.56-19.71
	l-11.83,20.7c0,0,18.73-23.66,20.7-19.71s-7.89,21.69-1.97,20.7s17.74-11.83,17.74-11.83l49.29-29.57c0,0-121.25-8.87,29.57-30.56
	c0,0,11.83-4.93-15.77,34.5s-44.36,71.96-55.2,61.12c-10.84-10.84-7.89-20.7,16.76-33.52s38.44-16.76,40.42-14.79
	s-4.93,14.79-0.99,12.81s11.83-14.79,10.84-10.84s-18.73,30.56-2.96,19.71s14.79-16.76,14.79-16.76s-20.7,38.44,11.83,8.87
	c0,0,10.84-16.76,9.86-12.81s-34.5,51.26,6.9,6.9c0,0,8.87-8.87,0,14.79c0,0-3.94,13.8,15.77-7.89c0,0,19.71-22.67,22.67-10.84
	c0,0-16.76-3.94-19.71,10.84c0,0-7.89,22.67,20.7-8.87c0,0-25.63,56.19-37.46,59.14c0,0-18.73-3.94,19.71-32.53l38.44-29.57"/>
</svg>
